<svg	xmlns="http://www.w3.org/2000/svg"
			viewBox="0 0 89 69"
			width="100%" height="100%"
			preserveAspectRatio="xMidYMid meet"
			aria-label="Logo Ecuyer des Saveurs">
	<g fill="#763695">
		<path d="M26.6669 4.38641C26.466 4.16459 26.1393 3.9833 25.8837 3.83447C25.5715 3.65275 25.1715 3.67568 24.8329 3.50195L24.7188 3.57828C24.777 3.73931 24.9677 3.78501 25.0815 3.87355C25.2191 3.98004 25.3844 4.05339 25.5212 4.15902C25.7682 4.35043 26.0014 4.55879 26.2473 4.74927C26.6658 5.07355 27.1421 5.68372 27.3944 6.21598C27.6796 6.81792 27.7985 7.44338 27.9689 8.06464C28.0525 8.36856 28.1539 8.65453 28.2373 8.96036C28.3143 9.24171 28.3371 9.56185 28.4863 9.82749L28.5436 9.78918C28.5086 9.38055 28.708 8.98716 28.6567 8.59735C28.6142 8.2722 28.5458 7.95257 28.5033 7.62554C28.4836 7.47611 28.3898 7.29533 28.35 7.14906C28.3234 7.0522 28.28 6.97611 28.2541 6.8825C28.2466 6.85433 28.199 6.67726 28.1968 6.67261C28.07 6.39728 27.8888 6.17821 27.7571 5.89128C27.7186 5.80825 27.7294 5.72665 27.661 5.62472C27.6225 5.56751 27.5847 5.51032 27.5464 5.45314C27.4601 5.3244 27.382 5.16895 27.2784 5.05319C27.0805 4.83179 26.8696 4.60995 26.6669 4.38641Z" />
		<path d="M30.5024 2.32355C30.4017 2.17318 30.2979 2.09477 30.1773 1.96174C30.0885 1.86385 29.9929 1.76989 29.8905 1.65705C29.695 1.4414 29.4266 1.29738 29.2026 1.12408C28.9415 0.921919 28.7031 0.737364 28.4192 0.572047C28.1392 0.409133 27.8228 0.290105 27.5021 0.191601C27.123 0.074719 26.6884 0.0235349 26.2995 0.00232252C25.9764 -0.0151984 25.6509 0.0735151 25.3255 0.0318649L25.2116 0.108212C25.2087 0.0550514 25.0952 0.130369 25.0825 0.111646L25.0013 0.16575C24.7756 0.194349 24.5594 0.252403 24.3334 0.280914L24.1851 0.3175C24.1721 0.298262 24.0789 0.395392 24.0659 0.376326L23.8954 0.445115C23.8826 0.425879 23.754 0.529365 23.7416 0.510299L23.4378 0.646933C23.4247 0.627781 23.3154 0.739167 23.3028 0.720447L21.7572 1.75151C21.77 1.77049 21.3376 2.11402 21.3376 2.11402C21.3502 2.13307 20.9751 2.43837 20.9751 2.43837C20.9875 2.45762 20.727 2.68657 20.727 2.68657C20.557 2.92317 20.3634 3.13702 20.193 3.37359L19.907 3.56434C19.7499 3.52689 19.6359 3.36948 19.4868 3.3074C19.3416 3.24727 19.1856 3.18252 19.0282 3.11734C18.6635 2.96637 18.3331 3.02605 17.9389 2.97546L17.8473 2.99144C17.8347 2.97263 17.7991 3.01377 17.7862 2.99472L17.6995 3.0099C17.6867 2.99102 17.6464 3.03318 17.6333 3.01404L17.5147 3.03944C17.3392 3.06168 17.1761 3.14594 17.0037 3.18604L16.8567 3.24238C16.8439 3.22333 16.6919 3.33907 16.679 3.32019L16.4429 3.41578C16.4303 3.39688 16.253 3.54905 16.2404 3.53017L13.0921 5.63034C13.0795 5.61146 12.9299 5.71846 12.9175 5.69998L12.6534 5.84067C12.0039 5.99242 11.3915 6.21656 10.7254 6.30004C10.0982 6.37896 8.62542 6.62662 8.62542 6.62662C8.61303 6.60721 8.47272 6.64596 8.47272 6.64596C8.46033 6.62662 8.32001 6.66484 8.32001 6.66484C8.3074 6.64596 8.16732 6.68383 8.16732 6.68383C7.74506 6.73732 7.34737 6.88033 6.92666 6.93331C6.92666 6.93331 6.67194 7.0477 6.65954 7.0288C6.65954 7.0288 6.3475 7.18151 6.33489 7.16252C6.33489 7.16252 5.90887 7.39182 5.89603 7.37292L4.00717 8.63302C4.02 8.65192 3.58757 8.99552 3.58757 8.99552C3.60018 9.01442 3.3397 9.24363 3.3397 9.24363C3.35232 9.26262 3.0343 9.53014 3.0343 9.53014C2.6864 9.93918 2.01097 10.8465 2.02381 10.8654C2.02381 10.8654 1.87752 11.0181 1.88992 11.0374C1.88992 11.0374 1.80139 11.1518 1.81423 11.1707C1.81423 11.1707 1.39928 11.7358 1.2614 11.9529C1.13437 12.1527 1.05603 12.3745 0.937406 12.5825C0.681131 13.0313 0.492577 13.559 0.346957 14.0512C0.0169865 15.1673 -0.0783972 16.2951 0.0641251 17.3397C0.128526 17.8121 0.206204 18.2701 0.332792 18.7313C0.364661 18.8462 0.377275 18.9753 0.409586 19.0934C0.436364 19.1911 0.446545 19.3692 0.486159 19.4555C0.580879 19.6611 0.658115 19.8346 0.715877 20.0459C0.827859 20.4541 1.03168 20.901 1.21382 21.2847C1.26229 21.3871 1.35745 21.4679 1.40503 21.5707C1.44332 21.6537 1.43247 21.7354 1.50063 21.8373C1.62944 22.0301 1.70203 22.2095 1.78745 22.3908C2.02403 22.8892 2.43655 23.3603 2.74372 23.8198C2.90395 24.0592 3.04913 24.3476 3.24078 24.5625C3.34612 24.6802 3.43442 24.7278 3.52759 24.8672C3.56411 24.9221 3.59863 24.9896 3.64267 25.0387C3.6949 25.0976 3.77745 25.1323 3.81441 25.172C4.0293 25.4034 4.16275 25.6544 4.36879 25.8768C4.40574 25.9164 4.48851 25.9514 4.54074 26.0098C4.58633 26.061 4.60957 26.1315 4.6556 26.1813C4.73129 26.2628 4.92405 26.3668 4.99973 26.448C5.22414 26.6897 5.4169 26.8816 5.66853 27.0765C5.90887 27.2629 6.14965 27.4196 6.41345 27.5714C6.55044 27.6499 6.6591 27.8164 6.79587 27.8949C6.9302 27.9726 7.0756 28.0293 7.1971 28.1231C7.42815 28.3026 7.65123 28.4754 7.88493 28.6562C8.35698 29.0225 8.73276 29.2493 9.12071 29.7327C9.19441 29.825 9.29399 29.9294 9.34379 29.9704C9.42833 30.0401 9.36924 30.0084 9.39469 30.0465C9.45665 30.1149 9.50468 30.1118 9.56642 30.1797C9.66889 30.2926 9.76471 30.3866 9.85346 30.4847C10.0487 30.7002 10.1693 30.9162 10.3698 31.1322C10.4317 31.1995 10.5116 31.2207 10.5796 31.3223C10.6179 31.3796 10.6561 31.437 10.6947 31.4941C10.7878 31.6333 10.8761 31.6813 10.9812 31.799C11.072 31.9004 11.12 32.04 11.2105 32.1418C11.2997 32.2414 11.4267 32.2844 11.4785 32.418C11.5292 32.4939 11.5803 32.5703 11.6312 32.6464C11.6438 32.6654 11.6567 32.6845 11.6695 32.7035C11.6821 32.7225 11.6952 32.7418 11.708 32.7606C11.974 33.1583 12.2496 33.4462 12.5109 33.8368C12.753 34.1989 12.9949 34.5605 13.2375 34.9228C13.7753 35.7268 13.9974 36.5425 14.2329 37.4003C14.2978 37.6365 14.3217 37.8892 14.3863 38.1247C14.4188 38.2424 14.4317 38.3716 14.4631 38.4869C14.4848 38.5646 14.5483 38.6733 14.5587 38.7534C14.6207 39.2239 14.7592 39.6482 14.8849 40.1067C14.9168 40.222 14.9294 40.3506 14.9615 40.4688C14.9887 40.5666 15.2235 41.2314 15.2487 41.269C15.297 41.3115 16.0649 42.6126 16.0906 42.6504C16.1034 42.6694 16.1158 42.6887 16.1289 42.7075C16.6244 43.2805 17.4671 43.5102 18.268 43.5536C19.0065 43.5941 19.8108 43.5071 20.5409 43.3608C21.253 43.2183 21.982 43.1196 22.6975 42.9963C23.3917 42.8766 24.0718 42.6495 24.7592 42.4891C24.7592 42.4891 25.2235 42.3171 25.2363 42.3359C25.2363 42.3359 25.7011 42.164 25.7135 42.1828C25.7135 42.1828 26.2924 41.9345 26.3053 41.9537C26.3053 41.9537 26.8842 41.705 26.8966 41.7242C26.8966 41.7242 27.2084 41.5711 27.2213 41.5906C27.2213 41.5906 27.6473 41.3609 27.6601 41.3803C27.6601 41.3803 28.0293 41.1893 28.0419 41.2084C28.0419 41.2084 28.4681 40.9789 28.4812 40.9983C28.4812 40.9983 29.0209 40.6927 29.034 40.7113C29.034 40.7113 29.5751 40.4061 29.5875 40.4252C29.5875 40.4252 30.4143 39.9288 30.4273 39.9476L33.1749 38.1147C33.162 38.0959 33.5943 37.752 33.5943 37.752C33.5814 37.7327 33.9563 37.4273 33.9563 37.4273C33.9439 37.4087 34.2046 37.1792 34.2046 37.1792C34.192 37.1604 34.4527 36.9312 34.4527 36.9312C34.4397 36.9123 34.6435 36.7214 34.6435 36.7214C34.6304 36.7023 34.7769 36.5498 34.7769 36.5498C34.7641 36.5308 34.9679 36.3398 34.9679 36.3398C34.9549 36.3203 35.1009 36.1683 35.1009 36.1683C35.0883 36.1488 35.2344 35.9963 35.2344 35.9963C35.2218 35.9773 35.3678 35.8248 35.3678 35.8248C35.3554 35.8058 35.4446 35.6909 35.4446 35.6909C35.6044 35.453 35.6996 35.2235 35.8062 34.9949C35.9319 34.7258 36.016 34.4689 36.0156 34.1936C36.0151 33.735 35.7702 33.3325 35.4986 32.9266C35.3753 32.7425 35.3563 32.5902 35.2313 32.4028C35.1018 32.2098 35.0299 32.031 34.9438 31.8501C34.8969 31.7506 34.8141 31.6561 34.7526 31.5642C34.6846 31.4624 34.6953 31.3805 34.657 31.2975C34.6114 31.1982 34.5266 31.1028 34.4658 31.0118C34.3974 30.9098 34.4085 30.8284 34.3702 30.7449C34.3244 30.6453 34.2398 30.5504 34.179 30.4592C34.1106 30.3574 34.121 30.2753 34.0834 30.1923C34.0356 30.0896 33.9415 30.0086 33.8919 29.9064C33.8417 29.8028 33.8417 29.7355 33.7959 29.6397C33.6182 29.2644 33.4236 28.9397 33.3174 28.5538C33.2023 28.1328 33.0315 27.7274 32.9724 27.2959C32.9091 26.8307 32.9177 26.3513 32.8569 25.8852C32.8387 25.7505 32.8535 25.6139 32.8369 25.4849C32.823 25.3769 32.8272 24.6605 32.7978 24.4361C32.7787 24.2905 32.7973 23.7737 32.7973 23.693C32.7967 23.4723 32.8339 22.4716 32.8339 22.2631C32.8334 22.0219 32.8334 21.7618 32.8327 21.5187C32.8323 21.026 32.8319 20.5159 32.8314 20.0316C32.8299 19.0086 32.9436 17.9989 32.9427 16.9815C32.9412 15.975 32.9978 14.9672 32.9967 13.9692C32.9958 12.959 33.0518 11.9572 33.0507 10.9573C33.0498 10.2571 33.0682 9.57307 33.0678 8.87889C33.0673 8.53436 33.0171 8.20227 32.9713 7.8688C32.9279 7.55189 32.9405 7.26317 32.8558 6.95374C32.7723 6.64931 32.7292 6.32828 32.6446 6.02015C32.5743 5.7614 32.4729 5.46296 32.3574 5.21992C32.1122 4.70191 31.8563 4.22286 31.5157 3.71463C31.3504 3.46661 31.1844 3.21894 31.0187 2.97152C30.8485 2.71731 30.6633 2.56385 30.5024 2.32355ZM35.3472 34.5565C35.3353 34.74 35.1972 34.9077 35.0996 35.0527C34.8785 35.3822 34.6844 35.7179 34.4231 36.0214C34.1878 36.2933 33.3838 37.0657 33.3838 37.0657C33.3962 37.085 33.0211 37.3901 33.0211 37.3901C33.0339 37.4096 32.3151 37.9439 32.3151 37.9439C32.3279 37.9629 31.2975 38.6503 31.2849 38.6312C31.2849 38.6312 30.4581 39.1274 30.4453 39.1088C30.4453 39.1088 29.9619 39.3762 29.9489 39.3571C29.9489 39.3571 29.5226 39.586 29.5102 39.5672C29.5102 39.5672 29.1984 39.7203 29.1858 39.701C29.1858 39.701 28.874 39.8533 28.8611 39.8347C28.8611 39.8347 28.5498 39.9879 28.5369 39.9684C28.5369 39.9684 26.7003 40.6622 25.9158 40.8766C25.1447 41.0878 24.379 41.3173 23.6062 41.5085C22.7672 41.7161 21.8236 41.9208 20.9777 41.6634C20.5993 41.5487 20.2857 41.1245 20.2704 40.7306C20.2525 40.2778 20.5776 39.917 20.8228 39.5762C20.8228 39.5762 23.2718 37.9151 23.2842 37.9339C23.2842 37.9339 24.1683 37.3997 24.1807 37.4187C24.1807 37.4187 24.7218 37.1128 24.7342 37.1321C24.7342 37.1321 25.3324 36.7882 25.3448 36.8074C25.3448 36.8074 25.7713 36.5777 25.7841 36.5972C25.7841 36.5972 26.1528 36.4062 26.1656 36.4252C26.1656 36.4252 26.5916 36.1957 26.6045 36.215C26.6045 36.215 26.9163 36.0621 26.9289 36.0811C26.9289 36.0811 27.2405 35.9284 27.2531 35.9474C27.2531 35.9474 29.8327 35.0056 30.6892 34.7714C31.1431 34.6468 31.6049 34.5758 32.0633 34.4744C32.4824 34.3817 33.5522 34.2248 33.5522 34.2248C34.0533 34.2281 34.4277 34.1478 34.8697 34.2137C35.0914 34.2469 35.3638 34.3044 35.3472 34.5565ZM32.1885 26.2482C32.2494 26.6965 32.2883 27.173 32.3618 27.6205C32.5479 28.7585 34.2996 32.0011 34.4284 32.1938C34.6517 32.5271 34.8747 32.8606 35.0978 33.1935L35.0405 33.2318C34.6262 33.1787 34.1458 33.3148 33.7425 33.3955C33.3471 33.4743 32.9396 33.4993 32.5461 33.5868C31.7899 33.7561 29.6576 34.3432 29.6576 34.3432C29.6446 34.3239 28.7031 34.649 28.7031 34.649L27.6915 34.9934C27.6787 34.9743 27.3673 35.1277 27.3673 35.1277C27.2651 35.1401 26.7755 35.357 26.7755 35.357C26.7625 35.338 26.508 35.4524 26.508 35.4524C26.4956 35.4336 26.1838 35.5867 26.1838 35.5867C26.1707 35.5672 25.8022 35.7582 25.8022 35.7582C25.7896 35.7392 25.4778 35.8921 25.4778 35.8921C25.465 35.8729 25.0958 36.0638 25.0958 36.0638C25.0834 36.045 24.657 36.2741 24.657 36.2741C24.6441 36.2555 24.1608 36.5224 24.1608 36.5224C24.1484 36.5036 23.6648 36.7711 23.6648 36.7711C23.6522 36.7517 22.9967 37.1339 22.9967 37.1339C22.9843 37.1146 22.1575 37.6115 22.1575 37.6115C22.1445 37.592 19.6262 39.2721 19.6386 39.2916C19.6386 39.2916 18.9198 39.8256 18.9326 39.8451C18.9326 39.8451 18.3853 40.2647 18.3979 40.2842C18.3979 40.2842 18.0226 40.5896 18.0357 40.6086C18.0357 40.6086 17.7179 40.8755 17.7305 40.895C17.7305 40.895 17.4125 41.1621 17.4253 41.1807C17.4253 41.1807 17.1644 41.4102 17.1772 41.429C17.1772 41.429 16.9167 41.6583 16.9296 41.6778C16.9296 41.6778 16.7257 41.8681 16.7386 41.8871C16.7386 41.8871 16.5352 42.0781 16.548 42.0969L16.4909 42.1352C16.3661 41.9491 16.2853 41.763 16.1846 41.5541C16.0877 41.354 15.9753 41.1205 15.9166 40.9058C15.79 40.4446 15.6216 39.9952 15.4953 39.5342C15.3665 39.0643 15.0843 37.8706 15.0542 37.7619C15.0223 37.6466 14.8298 36.944 14.7665 36.7134C14.7045 36.4863 14.2792 35.6312 14.25 35.5701C14.2019 35.5276 13.7104 34.6395 13.4656 34.2741C13.1879 33.859 12.9325 33.4726 12.8725 33.0169C12.8039 32.4941 13.1806 31.9958 13.4822 31.5768L13.627 31.417C13.6144 31.398 13.7429 31.348 13.7299 31.3287L14.1882 31.0233C14.1752 31.0041 16.1213 29.7059 16.1342 29.7249C16.1342 29.7249 17.6477 28.7702 17.6605 28.7892C17.6605 28.7892 20.4727 27.2992 20.4853 27.3182C20.4853 27.3182 23.3993 26.1273 24.1816 25.9133C24.9887 25.6925 26.7711 25.3291 26.7837 25.3483L30.0487 24.9062C30.5367 24.9044 31.1953 24.8984 31.6142 25.1427C32.0695 25.4081 32.123 25.7673 32.1885 26.2482ZM31.1539 4.78211C31.5691 5.64143 31.7709 6.53852 32.0159 7.43099C32.183 8.0408 32.1996 8.69109 32.285 9.31835C32.3733 9.96408 32.3822 10.6624 32.383 11.3202C32.3846 12.6804 32.4621 14.0299 32.4634 15.3994C32.4649 16.8033 32.4063 18.2341 32.2578 19.6699C32.1808 20.4158 32.1387 21.1257 32.0695 21.8627C32.0307 22.2744 31.9382 22.6181 31.8417 23.0073C31.7572 23.3455 31.5697 23.6213 31.4794 23.9517L30.9647 24.2951C30.6148 24.2507 30.2923 24.3091 30.0476 24.0389C29.8623 23.8344 29.7926 23.2864 29.7798 23.2672C29.7798 23.2672 29.7794 22.9865 29.7794 22.8954C29.7794 22.7652 29.7597 22.6176 29.7597 22.495C29.7592 22.3359 29.7592 22.2392 29.74 22.0942C29.7209 21.9479 29.7973 21.8014 29.7778 21.6551C29.7072 21.1164 29.7574 20.5722 29.757 20.0158C29.757 19.7543 29.7183 19.4785 29.7183 19.2152C29.7183 19.0851 29.6988 18.9375 29.6988 18.8148C29.6984 18.6663 29.7557 18.5224 29.7362 18.3767C29.7008 18.1059 29.6975 17.8591 29.6975 17.5755C29.697 17.385 29.6988 17.111 29.6014 16.9371L29.4868 17.0137C29.5063 17.1622 29.4018 17.2983 29.3538 17.4329C29.3016 17.5792 29.2706 17.7263 29.2398 17.8813C29.1758 18.2 29.1635 18.4619 29.1639 18.758C29.1643 19.3374 29.2225 19.8905 29.2232 20.4549C29.2237 20.7548 29.2429 21.0375 29.2429 21.3507C29.2433 21.5998 29.3075 21.905 29.2823 22.152C29.219 22.7661 29.0521 23.4247 28.7496 23.9543C28.7496 23.9543 28.3741 24.2599 28.3869 24.279L28.2152 24.3934C28.2023 24.3744 27.8336 24.5656 27.8336 24.5656C27.4288 24.6165 27.0422 24.7579 26.6313 24.7477C26.3987 24.7422 26.0902 24.6625 25.8671 24.5963C25.7314 24.5558 25.351 24.3204 25.351 24.3204C25.1618 24.0373 24.9026 23.7423 24.7585 23.4347C24.7012 23.3123 24.6882 23.2054 24.6627 23.1678C24.6264 23.0908 24.5908 22.9883 24.5667 22.9007C24.5224 22.7385 24.4587 22.5891 24.4137 22.4242C24.3657 22.2491 24.304 22.0318 24.2794 21.8517C24.2641 21.7391 24.2712 21.657 24.2411 21.5467C24.234 21.5214 24.188 21.3696 24.1838 21.3373C24.1553 21.1224 24.1927 20.9024 24.1639 20.6888C24.146 20.5574 24.1446 20.3503 24.0296 20.2409L23.9722 20.2792C23.9926 20.5136 23.8826 20.7442 23.8585 20.9753C23.8512 21.0472 23.897 21.2054 23.897 21.2801C23.8844 21.3438 23.8715 21.4074 23.8592 21.4706C23.8844 21.5089 23.9098 21.5472 23.9353 21.5854C23.9625 21.7904 23.9583 21.9969 24.0125 22.1958C24.0636 22.3822 24.1528 22.5433 24.2042 22.7296C24.3053 23.099 24.4149 23.5237 24.4153 23.9112C24.4157 24.1435 24.4569 24.3445 24.3777 24.5974C24.3206 24.7807 24.2004 24.9343 24.1491 25.1219L23.3482 25.6564C23.3351 25.6378 22.9662 25.8288 22.9662 25.8288C22.9536 25.8095 22.6991 25.9244 22.6991 25.9244C22.6862 25.9054 22.4317 26.0198 22.4317 26.0198C22.4191 26.0005 22.1646 26.1156 22.1646 26.1156C22.1518 26.0964 21.8404 26.2493 21.8404 26.2493C21.8273 26.2303 21.5157 26.3832 21.5157 26.3832C21.5031 26.3639 21.2486 26.4788 21.2486 26.4788C21.2358 26.4597 20.9813 26.5744 20.9813 26.5744C20.9687 26.5554 20.7715 26.6319 20.7715 26.6319C20.7584 26.6129 20.6185 26.651 20.6185 26.651C20.4676 26.6315 20.1219 26.6518 20.1219 26.6518C20.1095 26.6326 19.776 26.5463 19.6831 26.4898C19.599 26.4392 19.4407 26.3491 19.3774 26.2807C19.2281 26.1198 19.1167 25.8917 18.9948 25.7089C18.7394 25.328 18.484 24.9469 18.2289 24.566C18.0963 24.3673 17.9334 24.2476 17.7896 24.0327C17.7066 23.9085 17.6276 23.8808 17.541 23.7848C17.4952 23.7346 17.4722 23.664 17.4262 23.6135C17.4051 23.5531 17.3604 23.5274 17.2925 23.5374C17.1232 23.355 17.0196 23.1837 16.853 23.0042C16.7917 22.9379 16.608 22.8608 16.5471 22.7949C16.4954 22.7387 16.456 22.6583 16.413 22.5946L16.3559 22.6329C16.6089 23.0109 16.8375 23.4659 17.14 23.8045C17.3073 23.9917 17.4629 24.163 17.6178 24.3949C17.7508 24.5935 17.7993 24.7898 17.9429 25.0047C18.2182 25.4158 18.4519 25.8717 18.5748 26.3197C18.6524 26.6027 18.6947 26.7972 18.6137 27.1201C18.5451 27.3941 18.3906 27.5727 18.2517 27.8164L17.8511 28.0835C17.8635 28.1025 17.8765 28.1216 17.8894 28.1408L17.2024 28.5991C17.1896 28.5801 17.177 28.5611 17.1641 28.5418L16.8205 28.7711C16.8081 28.7521 16.795 28.7328 16.7824 28.7138L16.5536 28.8665C16.1105 28.9225 15.5506 29.1389 15.1976 28.8204C14.9077 28.558 14.6538 28.1581 14.3949 27.8679C14.109 27.5481 13.939 27.1971 13.6493 26.8776C13.5148 26.7291 13.3767 26.5939 13.2477 26.4013C13.1379 26.2371 13.0155 26.1776 12.9037 26.0107L12.8464 26.0488C12.9892 26.1791 12.9821 26.4531 13.0571 26.6111C13.1056 26.7136 13.2012 26.7939 13.2483 26.8971C13.2864 26.98 13.276 27.0617 13.3444 27.1637C13.459 27.3352 13.5734 27.5068 13.6885 27.6783C13.8058 27.8535 13.8594 28.01 13.937 28.1733C13.9842 28.2729 14.0669 28.3674 14.1282 28.459C14.2055 28.575 14.1924 28.6117 14.2238 28.7262C14.2506 28.8224 14.2942 28.8988 14.3199 28.9931C14.3575 29.1303 14.3582 29.1427 14.3582 29.298C14.3586 29.5556 14.3562 29.759 14.2635 30.0224C14.1944 30.2182 14.082 30.4026 13.9778 30.5849L13.5772 30.8525C13.1447 30.8543 12.8214 30.6124 12.5645 30.3291C12.3401 30.0815 12.161 29.85 11.972 29.5671C11.7808 29.2814 11.5896 28.9957 11.3984 28.71C11.3092 28.5766 11.2196 28.4433 11.1304 28.3099C11.0246 28.1516 10.9146 28.0687 10.8055 27.9478C10.5692 27.6869 10.3881 27.3769 10.1173 27.1673C9.85899 26.967 9.66933 26.6824 9.41018 26.4814C9.13067 26.2648 8.88723 25.9939 8.60772 25.7772C8.36782 25.5913 8.09716 25.3853 7.91945 25.1202L7.86213 25.1582C7.95486 25.2966 8.03851 25.4628 8.14939 25.5867C8.26668 25.7186 8.36716 25.7887 8.47427 25.9487C8.52318 26.0224 8.56788 26.1116 8.62697 26.1774C8.6792 26.2358 8.76219 26.2708 8.79893 26.3106C8.90715 26.4268 8.96092 26.5925 9.06693 26.7107C9.50136 27.1971 9.91277 27.7672 10.3476 28.2535C10.4656 28.3858 10.555 28.5633 10.6537 28.7107C10.7028 28.7844 10.748 28.8731 10.8066 28.9395C10.8589 28.9981 10.9416 29.0331 10.9786 29.0727C11.1875 29.2978 11.3429 29.6169 11.5142 29.8728C11.7162 30.1751 11.8864 30.4701 12.0302 30.7682C12.1093 30.9313 12.1633 31.0428 12.2409 31.2068C12.31 31.352 12.3715 31.491 12.3748 31.6543L12.3715 31.718C12.3841 31.7373 12.3434 31.7306 12.3558 31.7499L12.3467 31.7919C12.3595 31.8112 12.3244 31.8258 12.337 31.8451L12.1743 31.9457C12.0329 31.9334 11.9165 31.8364 11.783 31.7599C11.6872 31.7045 11.6241 31.5815 11.535 31.5122C11.3548 31.3728 11.1355 31.2258 10.9806 31.0552C10.8735 30.9368 10.817 30.9288 10.7155 30.8146C10.6699 30.764 10.607 30.6931 10.5612 30.6425C10.5402 30.5818 10.4997 30.5688 10.4457 30.503C10.2914 30.3167 10.1376 30.1671 10.0057 29.9697C9.73661 29.5676 9.35463 29.2327 9.03086 28.884C9.02709 28.8802 8.8817 28.7687 8.8589 28.7507C8.80114 28.7058 8.73895 28.6576 8.68717 28.6173C8.59068 28.5429 8.53446 28.4447 8.43842 28.3699C8.25097 28.2245 8.07459 28.0605 7.88426 27.9129C7.67468 27.7506 7.44651 27.601 7.23472 27.4368C7.03887 27.2852 6.81667 27.1684 6.62325 27.0181C6.226 26.7105 5.87479 26.3557 5.47665 26.0472C5.42442 26.007 5.36268 25.9587 5.30469 25.9138C5.28212 25.8963 5.13628 25.7845 5.13252 25.7808C5.08648 25.731 5.06369 25.6595 5.0181 25.6093C4.99708 25.5484 4.95238 25.5234 4.88399 25.5331C4.83818 25.4833 4.81516 25.4121 4.76935 25.3614C4.74811 25.301 4.70385 25.2755 4.63546 25.2855C4.58943 25.2357 4.56664 25.1647 4.52105 25.114C4.50024 25.0536 4.45532 25.0281 4.38738 25.0381C4.21055 24.8473 4.06781 24.6251 3.90935 24.4474C3.83565 24.3648 3.77966 24.2538 3.71814 24.1617C3.63493 24.0375 3.55636 24.0096 3.46961 23.914C3.27685 23.7016 3.13234 23.4099 2.97255 23.1711C2.89842 23.0607 2.8006 22.9478 2.74306 22.8283C2.67423 22.6864 2.66383 22.5864 2.57066 22.447C2.22365 21.9276 2.03288 21.4226 1.78634 20.9029C1.25963 19.7936 0.951127 18.617 0.789794 17.4343C0.610534 16.1212 0.793556 14.5092 1.43469 13.2016C1.72261 12.6144 1.98685 12.0466 2.36838 11.5037C2.71672 11.0084 3.76063 9.87237 3.76063 9.87237C3.74757 9.85338 4.12269 9.54764 4.12269 9.54764C4.11008 9.52919 4.54251 9.18558 4.54251 9.18558C4.52968 9.16617 6.01797 8.17314 6.03081 8.19246C6.03081 8.19246 6.57146 7.88675 6.5843 7.90607C6.5843 7.90607 6.89568 7.75295 6.90851 7.77182C6.90851 7.77182 8.46807 7.23544 9.1227 7.12155C9.44183 7.06574 9.75697 6.98724 10.0772 6.93931C10.3441 6.89965 10.8518 6.80329 11.1143 6.87705C11.1143 6.87705 11.334 6.92085 11.3471 6.93975C11.3471 6.93975 11.5409 6.99884 11.5093 7.10026C11.5093 7.10026 11.3156 7.36692 11.3285 7.38624L11.1585 7.66303C11.0439 7.93561 10.8693 8.2142 10.7659 8.46376C10.6424 8.76262 10.5519 9.13481 10.5187 9.45542C10.4873 9.7626 10.4556 10.108 10.4244 10.4277C10.4116 10.5596 10.4439 10.7039 10.4439 10.8285C10.4439 10.977 10.387 11.1204 10.4063 11.2668C10.4784 11.8174 10.4711 12.4088 10.6181 12.9443C10.69 13.2077 10.717 13.4917 10.7524 13.7639C10.7668 13.8737 10.8564 13.9788 10.8865 14.0877C10.9179 14.203 10.9308 14.3322 10.9631 14.4497C11.0025 14.5932 11.0709 14.6905 11.1355 14.8307C11.1733 14.9128 11.1744 15.1112 11.2121 15.1928C11.3243 15.4363 11.4112 15.6721 11.5184 15.898C11.7244 16.3325 11.9849 16.719 12.2644 17.1365C12.4062 17.3486 12.4726 17.5714 12.628 17.8034C12.7637 18.0059 12.8863 18.2503 13.0487 18.432C13.3999 18.825 13.8113 19.2245 14.4051 19.2217L14.4624 19.1834C14.1588 18.7305 13.8217 18.3499 13.5061 17.8786C13.2129 17.4409 12.9199 17.0022 12.6264 16.5645C12.3171 16.1019 12.1135 15.5692 11.8802 15.0779C11.652 14.5968 11.4832 14.0415 11.3442 13.5347C11.0217 12.3594 10.7785 11.1422 11.0348 9.85535C11.1683 9.18653 11.3101 8.53392 11.6631 7.94814C11.9548 7.46336 12.9407 6.3933 12.9407 6.3933C12.9279 6.3744 13.1883 6.14519 13.1883 6.14519C13.1757 6.12622 13.5511 5.82091 13.5511 5.82091C13.538 5.8015 15.4213 4.60743 15.4213 4.60743C15.4344 4.6266 17.1522 3.88021 17.6727 3.81468C18.1926 3.74915 18.8259 3.72751 19.2776 3.98456L19.3265 4.00627C19.3392 4.02517 19.3843 4.01667 19.3967 4.03573C19.4412 4.06115 19.4624 4.0542 19.5067 4.07988L19.6149 4.11329C19.8524 4.25989 20.0398 4.28625 20.2518 4.45052C20.4417 4.59774 20.6139 4.75867 20.8062 4.90768C20.9901 5.05022 21.2081 5.26097 21.3411 5.4598C21.4852 5.67475 22.1796 6.60086 22.1445 6.65986C22.2392 6.86563 22.428 7.02752 22.5269 7.23139C22.6313 7.44772 22.7699 7.70691 22.8327 7.93663C22.865 8.05377 22.9347 8.14369 22.9671 8.2604C22.9991 8.37849 23.0124 8.50765 23.0439 8.62247C23.1173 8.89135 23.1981 9.12984 23.2355 9.40423C23.2539 9.53897 23.2364 9.66994 23.255 9.8046C23.2725 9.9342 23.2568 10.0689 23.2745 10.2045C23.3112 10.4836 23.315 10.7838 23.3519 11.0624C23.3709 11.2086 23.3136 11.3526 23.3141 11.5011C23.3141 11.6219 23.3451 11.7916 23.3335 11.9014C23.2716 12.5034 23.2776 13.0923 23.2784 13.6744C23.2784 13.947 23.2813 14.2122 23.3174 14.4752C23.3353 14.6089 23.3366 14.7398 23.3366 14.8755C23.3366 14.9682 23.3238 15.1217 23.3944 15.2089L23.5657 15.0946C23.6509 14.7818 23.872 14.5157 23.9658 14.2076C24.0639 13.887 24.1422 13.4922 24.1752 13.1588C24.2356 12.5393 24.1927 11.9309 24.1922 11.3285C24.1913 10.7349 24.0785 10.1372 23.9997 9.55554C23.9641 9.29774 23.8766 9.02602 23.8074 8.77464C23.7359 8.51314 23.6772 8.28805 23.5584 8.0312C23.5062 7.91767 23.5002 7.73086 23.4433 7.61193C23.3858 7.48921 23.3667 7.44756 23.3099 7.3239C23.2873 7.27503 23.1906 7.13032 23.1565 7.05937C23.128 7.0003 23.0784 6.94267 23.0419 6.8877C22.9806 6.79641 22.6973 6.40301 22.6026 6.26137C22.5388 6.16641 22.4364 6.10688 22.3731 6.01139C22.2179 5.77985 22.0367 5.63317 21.895 5.42098C21.602 4.98332 21.3402 4.47226 21.3398 3.97287C21.3393 3.36038 21.666 2.89878 22.0252 2.39931C22.0252 2.39931 22.4131 2.03045 22.464 1.94149C22.464 1.94149 23.0678 1.48314 23.0554 1.46425L23.3413 1.27342C23.3543 1.29214 23.8946 0.986671 23.8946 0.986671C24.3788 0.873483 24.8398 0.690559 25.3457 0.680082C25.9337 0.668145 26.5328 0.780477 27.0451 0.993027C27.9551 1.37047 28.7861 1.87543 29.4527 2.61099C29.7519 2.94111 30.1299 3.25201 30.3891 3.63941C30.6356 4.00782 30.9611 4.38347 31.1539 4.78211Z" />
		<path d="M7.02599 10.4216L6.28195 10.9183C5.88603 11.4687 5.6032 12.0954 5.53902 12.7776C5.47816 13.4275 5.43191 14.1156 5.59855 14.7222C5.67623 15.0058 5.69327 15.3144 5.77117 15.599C5.84752 15.8776 5.98916 16.0866 6.11553 16.3609C6.1381 16.4103 6.13899 16.4998 6.17329 16.5708C6.20206 16.6298 6.25141 16.6875 6.28792 16.7424C6.36427 16.8563 6.44107 16.9707 6.51742 17.0851C6.68561 17.3364 6.95318 17.4047 7.12845 17.628L7.24353 17.5514C6.91179 17.056 6.7031 16.4463 6.55438 15.9034C6.46984 15.5953 6.42735 15.2752 6.34325 14.9694C6.26292 14.6756 6.26889 14.355 6.22773 14.0543C6.135 13.3745 6.28328 12.5609 6.49286 11.8519C6.59134 11.5184 6.74891 11.2131 6.94986 10.9271C7.02931 10.8142 7.13996 10.6854 7.20436 10.5646C7.3128 10.3602 7.23756 10.3953 7.02599 10.4216Z" />
		<path d="M37.253 49.7705C37.6225 49.8689 37.8073 50.0208 37.8073 50.2255C37.8073 50.5291 37.7252 50.7933 37.5608 51.0191C37.3966 51.2446 37.1828 51.357 36.9203 51.357C36.6326 51.357 36.3925 51.2304 36.1995 50.9761C36.0065 50.7219 35.9101 50.443 35.9101 50.1394C35.9101 49.672 36.1256 49.2212 36.5567 48.7861C36.9881 48.3516 37.3641 48.1341 37.6841 48.1341C38.3987 48.1341 38.9632 48.2842 39.3782 48.5831C39.7927 48.883 40.0003 49.3192 40.0003 49.8935C40.0003 50.3609 39.8462 50.8673 39.5382 51.4126C39.2303 51.9581 38.8769 52.3947 38.4788 52.7227C38.0802 53.0507 37.6841 53.2536 37.2899 53.3315C36.8958 53.4096 36.337 53.4482 35.6144 53.4482C35.2939 53.4482 34.5714 53.3767 33.4462 53.2333C32.3209 53.0894 31.4173 53.0177 30.7357 53.0177C30.251 53.0177 29.5694 53.0996 28.6906 53.2638V52.6118L30.1074 52.5133C29.8445 49.0693 29.5674 46.3709 29.2757 44.4192C28.9842 42.4677 28.5385 40.3518 27.939 38.0717L26.271 38.0551L27.164 37.5631C29.981 37.473 31.9555 37.1862 34.1728 36.7429L36.9449 36.1895C36.6574 37.7317 36.5465 39.0846 36.6123 40.2491H36.0088L36.0825 37.4691L30.3415 37.8504C30.6044 41.6314 30.7357 44.2185 30.7357 45.6127C33.1422 45.5061 35.0434 45.2106 36.4399 44.7268V45.7108C34.723 46.0472 32.8219 46.2399 30.7357 46.2886C30.7684 47.1256 30.785 48.2038 30.785 49.5244C30.785 50.4919 30.7766 51.4723 30.7604 52.4642L35.5529 52.6118C37.0312 52.6118 37.9738 52.4439 38.3801 52.1075C38.7868 51.7711 38.99 51.2672 38.99 50.5944C38.99 49.4383 38.4027 48.8598 37.2284 48.8598C37.0558 48.8598 36.8774 48.9647 36.6924 49.1738C36.5076 49.3827 36.4151 49.631 36.4151 49.9178C36.4151 50.123 36.5014 50.2868 36.6738 50.4098C36.8466 50.5333 37.0024 50.5944 37.1421 50.5944C37.3145 50.5944 37.401 50.5043 37.401 50.3237C37.401 50.1515 37.3145 50.0163 37.1421 49.9178L37.253 49.7705Z" />
		<path d="M47.368 52.4393C46.481 52.6775 45.75 52.7961 45.1753 52.7961C43.8034 52.7961 42.6453 52.1935 41.701 50.9875C40.7565 49.7823 40.2842 48.3761 40.2842 46.7685C40.2842 45.2924 40.8591 43.9701 42.0093 42.8014C43.159 41.6329 44.4689 41.0488 45.939 41.0488C46.6123 41.0488 47.2985 41.2597 47.9965 41.682C48.6943 42.1042 49.0435 42.6068 49.0435 43.1891C49.0435 43.6808 48.8116 44.1529 48.3475 44.6037C47.8834 45.0547 47.3886 45.2802 46.8632 45.2802C46.3949 45.2802 45.976 45.1552 45.6064 44.9049C45.2371 44.655 45.0523 44.3291 45.0523 43.9272C45.0523 43.5498 45.1711 43.2566 45.4094 43.0475C45.6476 42.8383 45.9718 42.7339 46.3825 42.7339C46.6207 42.7339 46.8364 42.7934 47.0294 42.9125C47.2222 43.0311 47.3189 43.1849 47.3189 43.3737C47.3189 43.4883 47.2428 43.6052 47.0907 43.7242C46.9389 43.8433 46.797 43.9021 46.6658 43.9021H46.518C46.6003 43.6319 46.6412 43.4558 46.6412 43.3737C46.6412 43.1685 46.514 43.066 46.2593 43.066C46.1114 43.066 45.9822 43.1524 45.8713 43.3241C45.7604 43.4963 45.7049 43.6689 45.7049 43.8411C45.7049 44.4972 46.0085 44.825 46.6167 44.825C47.027 44.825 47.3623 44.6754 47.6208 44.3762C47.8795 44.0768 48.0089 43.714 48.0089 43.2874C48.0089 42.779 47.7934 42.3464 47.3623 41.9896C46.9307 41.6331 46.448 41.4547 45.9145 41.4547C44.7975 41.4547 43.8652 42.0328 43.1178 43.1893C42.3705 44.3454 41.9967 45.5715 41.9967 46.8672C41.9967 48.2942 42.2883 49.5756 42.8713 50.7111C43.4544 51.8473 44.2221 52.4148 45.1753 52.4148C45.9224 52.4148 46.477 52.1034 46.8382 51.4802L47.368 52.4393Z" />
		<path d="M60.3986 53.1164C59.4538 53.3955 58.6903 53.6825 58.1074 53.9777L57.8236 51.0746C56.7888 52.5753 55.5444 53.3257 54.0906 53.3257C52.9819 53.3257 51.9636 52.8849 51.0355 52.0034C50.1075 51.122 49.6432 50.0495 49.6432 48.7863C49.6432 48.2697 49.7953 47.6961 50.0993 47.0643C50.403 46.4331 50.7498 45.9221 51.1404 45.5328C51.5301 45.1435 51.8669 44.6985 52.1504 44.1983C52.4337 43.698 52.5753 43.3043 52.5753 43.0172C52.5753 42.14 52.1976 41.7011 51.4418 41.7011C51.1136 41.7011 50.7993 41.7954 50.4995 41.9839C50.1998 42.1727 50.0495 42.4064 50.0495 42.685C50.0495 42.8738 50.1277 43.04 50.2839 43.1832C50.4399 43.3271 50.6083 43.3985 50.7892 43.3985C51.0027 43.3985 51.1359 43.3782 51.1893 43.3372C51.2428 43.2961 51.2696 43.2306 51.2696 43.14C51.2696 42.9353 51.0926 42.8001 50.7396 42.7344C50.9122 42.5374 51.0516 42.4389 51.1587 42.4389C51.3068 42.4389 51.44 42.5067 51.5589 42.6421C51.6779 42.7773 51.7375 42.9353 51.7375 43.1159C51.7375 43.3861 51.6246 43.6387 51.3989 43.8724C51.1729 44.1058 50.9244 44.2229 50.6533 44.2229C50.3988 44.2229 50.1628 44.0979 49.9451 43.8473C49.7273 43.5975 49.6187 43.3372 49.6187 43.0666C49.6187 42.558 49.8074 42.066 50.1854 41.5902C50.563 41.1151 50.9655 40.877 51.3924 40.877C51.8609 40.877 52.2465 41.0717 52.5505 41.461C52.8544 41.8509 53.0064 42.3203 53.0064 42.8696C53.0064 43.6243 52.8053 44.3537 52.4027 45.0592C51.5241 46.6093 51.085 47.8105 51.085 48.6637C51.085 49.9349 51.3907 50.9352 52.0028 51.665C52.6143 52.3951 53.438 52.7599 54.4728 52.7599C55.7376 52.7599 56.8218 51.9156 57.7252 50.2257C57.4295 47.6175 56.9982 45.038 56.4314 42.4867L55.1252 42.562L55.175 42.0333C56.6368 42.0087 58 41.783 59.2652 41.3567L59.3881 41.8487L58.1317 42.199C58.1317 44.9725 58.2795 48.6037 58.5752 53.092C59.1663 52.9688 59.7167 52.7844 60.2259 52.5386L60.3986 53.1164Z" />
		<path d="M68.6579 41.7501C68.7069 41.8238 68.7319 41.8977 68.7319 41.9714C68.7319 42.119 68.6597 42.2587 68.5159 42.3894C68.3725 42.5207 68.2432 42.5864 68.1279 42.5864C67.8814 42.5864 67.6554 42.4554 67.4505 42.1927C67.2447 41.9302 67.1422 41.6844 67.1422 41.4549C67.1422 41.0778 67.3066 40.7064 67.6351 40.3415C67.9635 39.9765 68.2799 39.7939 68.584 39.7939C69.0435 39.7939 69.4626 39.9845 69.8404 40.366C70.2182 40.7476 70.4069 41.1596 70.4069 41.6023C70.4069 42.0619 70.3023 42.6172 70.0927 43.2691C69.8829 43.9209 69.3628 45.0591 68.532 46.6828C67.701 48.3063 67.0966 49.5696 66.7186 50.4714C66.3397 51.3737 66.0399 52.2881 65.8177 53.2147C65.3653 55.0923 64.8025 56.2181 64.128 56.5912C63.4534 56.9643 62.9272 57.1509 62.5494 57.1509C61.9078 57.1509 61.3895 57.0035 60.9952 56.7083C60.6006 56.4131 60.4032 56.0643 60.4032 55.6624C60.4032 55.2359 60.6249 54.869 61.0684 54.5616C61.5119 54.2542 62.0209 54.1004 62.5961 54.1004C62.8422 54.1004 63.0639 54.1865 63.2613 54.3589C63.4583 54.5311 63.557 54.7479 63.557 55.0106C63.557 55.224 63.4216 55.4247 63.1505 55.6133C62.8791 55.8023 62.6204 55.8965 62.3743 55.8965C62.1688 55.8965 62.0661 55.8104 62.0661 55.6383C62.165 55.6383 62.2878 55.5681 62.4357 55.4289C62.5835 55.2895 62.6574 55.1169 62.6574 54.9122C62.6574 54.6087 62.551 54.4571 62.3374 54.4571C62.009 54.4571 61.7379 54.537 61.5245 54.6968C61.3103 54.8568 61.2036 55.0764 61.2036 55.355C61.2036 55.7239 61.3521 56.0603 61.6482 56.3639C61.9441 56.6671 62.2852 56.8189 62.6718 56.8189C63.0912 56.8189 63.5227 56.4825 63.9671 55.8104C64.411 55.1377 64.7379 54.4487 64.9475 53.7434C65.1573 53.0383 65.5008 52.0584 65.9779 50.8036C64.4889 46.6273 63.0414 43.6666 61.6354 41.9223C61.2658 42.0207 60.6864 42.2051 59.8979 42.4758L59.7627 41.9838C60.6083 41.7952 61.7131 41.3767 63.0766 40.7292C63.5209 41.303 63.9341 42.0597 64.3168 42.9985C64.6992 43.9375 65.0632 45.0142 65.4094 46.2278L66.4338 49.8442L68.3594 45.9866C68.8943 44.9139 69.2499 44.0769 69.4268 43.4745C69.6038 42.8726 69.6926 42.3713 69.6926 41.9696C69.6926 41.5766 69.5671 41.2594 69.3163 41.0176C69.066 40.7763 68.7394 40.6553 68.337 40.6553C68.148 40.6553 67.99 40.7062 67.8623 40.8075C67.7355 40.9091 67.6718 41.0328 67.6718 41.1791C67.6718 41.6664 67.807 41.9099 68.0783 41.9099C68.2348 41.9099 68.4278 41.8563 68.6579 41.7501Z" />
		<path d="M76.4455 50.3979C76.8314 50.3979 77.0244 50.5825 77.0244 50.9514C77.0244 51.1895 76.9202 51.3925 76.7104 51.5607C76.501 51.7289 76.3021 51.8127 76.1128 51.8127C75.8747 51.8127 75.6304 51.6979 75.3801 51.4679C75.1291 51.2387 75.0043 50.956 75.0043 50.6194C75.0043 50.152 75.1559 49.7851 75.4598 49.5187C75.7638 49.2522 76.1418 49.119 76.5935 49.119C77.1355 49.119 77.5874 49.3095 77.9488 49.6908C78.3102 50.0721 78.4908 50.5579 78.4908 51.1486C78.4908 51.8457 78.1852 52.3992 77.5728 52.8093C76.9609 53.2189 76.2897 53.4243 75.5587 53.4243C74.228 53.4243 72.9919 52.8728 71.8504 51.7698C70.7085 50.6668 70.1382 49.3279 70.1382 47.7533C70.1382 46.269 70.6923 44.9199 71.8011 43.7064C72.9101 42.4928 74.0888 41.8857 75.3372 41.8857C76.2735 41.8857 77.1421 42.1954 77.9424 42.8143C78.7433 43.4336 79.1441 44.0791 79.1441 44.7519C79.1441 45.5882 78.8006 46.273 78.1152 46.8061C77.4294 47.3394 76.5692 47.6057 75.5339 47.6057C74.532 47.6057 73.7599 47.4665 73.2177 47.1876C72.6759 46.909 72.4046 46.519 72.4046 46.0191C72.4046 45.5681 72.5728 45.1989 72.9101 44.9117C73.2462 44.6249 73.5999 44.4812 73.9692 44.4812C74.2977 44.4812 74.5958 44.5653 74.8629 44.7335C75.1291 44.9015 75.263 45.1007 75.263 45.33C75.263 45.5763 75.1707 45.806 74.9859 46.0189C74.8009 46.232 74.6225 46.3389 74.4497 46.3389C74.1129 46.3389 73.9449 46.2203 73.9449 45.9822C74.3306 45.8764 74.5236 45.694 74.5236 45.4342C74.5236 45.2315 74.4497 45.0708 74.3019 44.9531C74.154 44.8356 73.9777 44.7765 73.7725 44.7765C73.624 44.7765 73.4846 44.8977 73.3536 45.1394C73.2219 45.3813 73.1564 45.6296 73.1564 45.8834C73.1564 46.2444 73.4131 46.5542 73.9263 46.8125C74.4397 47.0708 75.0616 47.2 75.7924 47.2C76.4167 47.2 76.9018 47.0115 77.2464 46.6341C77.5912 46.257 77.764 45.7482 77.764 45.1086C77.764 44.4443 77.5133 43.8087 77.0127 43.2019C76.5114 42.5953 75.8957 42.2916 75.1643 42.2916C74.253 42.2916 73.4764 42.802 72.8362 43.8233C72.1957 44.8442 71.875 46.2282 71.875 47.9748C71.875 49.4184 72.2426 50.6115 72.9773 51.5547C73.7125 52.4977 74.6181 52.9691 75.6943 52.9691C76.1949 52.9691 76.694 52.7951 77.1908 52.4463C77.6879 52.0978 77.9364 51.6574 77.9364 51.124C77.9364 50.7635 77.7594 50.4557 77.4064 50.2014C77.0534 49.9473 76.6674 49.8201 76.2485 49.8201C76.0186 49.8201 75.8211 49.8947 75.6572 50.0438C75.4927 50.1928 75.4108 50.3709 75.4108 50.5778C75.4108 50.9339 75.6204 51.1121 76.0391 51.1121C76.162 51.1121 76.2609 51.0348 76.3348 50.8801C76.4085 50.7254 76.4455 50.565 76.4455 50.3979Z" />
		<path d="M83.0739 44.7517C83.4105 43.6201 83.8843 42.7548 84.4967 42.1562C85.1084 41.5578 85.7302 41.2579 86.3632 41.2579C86.9707 41.2579 87.4921 41.506 87.9278 42.0024C88.3629 42.4985 88.5805 43.1032 88.5805 43.8169C88.5805 44.6532 88.3344 45.3339 87.8413 45.8584C87.3484 46.3836 86.712 46.6461 85.9316 46.6461C85.5295 46.6461 85.1885 46.4901 84.9094 46.1784C84.6299 45.8668 84.4902 45.4939 84.4902 45.0591C84.4902 44.846 84.673 44.5815 85.0389 44.2657C85.404 43.9501 85.7015 43.7919 85.9316 43.7919C86.26 43.7919 86.5438 43.8702 86.7814 44.026C87.0198 44.1818 87.1391 44.3989 87.1391 44.678C87.1391 44.9896 86.8638 45.2067 86.3138 45.3297C86.4121 45.0839 86.4617 44.8829 86.4617 44.7271C86.4617 44.4073 86.3508 44.2473 86.129 44.2473C85.94 44.2473 85.7798 44.362 85.6486 44.5917C85.5167 44.8216 85.4512 45.0511 85.4512 45.2806C85.4512 45.4939 85.5437 45.7031 85.7285 45.9082C85.913 46.1129 86.108 46.2154 86.3138 46.2154C86.8722 46.2154 87.3135 46.0169 87.6381 45.6188C87.9626 45.2213 88.125 44.7231 88.125 44.1243C88.125 43.698 87.9318 43.3309 87.5458 43.0237C87.1597 42.7159 86.7204 42.5621 86.2273 42.5621C85.7183 42.5621 85.2542 42.6957 84.8357 42.962C84.4166 43.2284 84.0286 43.702 83.671 44.3828C83.3142 45.0635 83.1352 45.4897 83.1352 45.6619C83.1352 45.7932 83.2914 48.0937 83.6037 52.563C84.6056 52.2598 85.5169 51.8497 86.3382 51.3332L86.486 51.9358C85.5665 52.3952 84.7122 52.7559 83.9239 53.0182C83.1352 53.2809 82.1291 53.4898 80.9057 53.6458V53.0182C81.6281 53.0182 82.3265 52.9241 83 52.7354C83 51.8663 82.8045 50.3654 82.4146 48.2331C82.0244 46.1012 81.6077 44.3051 81.1642 42.8451L79.4148 43.4725L79.2915 43.0664C80.8845 42.6566 82.1537 42.017 83.0982 41.1475C83.0491 41.8448 83.0243 42.3244 83.0243 42.5868C83.0243 43.3085 83.0409 44.0298 83.0739 44.7517Z" />
		<path d="M10.9117 54.3317L10.2747 54.472C10.0501 55.2264 9.77392 56.9728 9.44617 59.711C9.11841 62.4493 8.95464 64.6103 8.95464 66.194C8.95464 67.1921 9.22287 67.8129 9.75976 68.0561L9.48822 68.4299C9.09495 68.3115 8.81101 67.9408 8.63618 67.3174C8.46135 66.6942 8.37393 65.0209 8.37393 62.297C7.81225 61.306 7.19414 60.8105 6.52026 60.8105C5.92096 60.8105 5.41549 61.1424 5.00341 61.8064C4.59134 62.4698 4.3853 63.1884 4.3853 63.9612C4.3853 65.0518 4.57408 65.9355 4.95185 66.6118C5.32962 67.2879 5.86474 67.6259 6.55766 67.6259C6.8635 67.6259 7.15054 67.4953 7.41899 67.2335C7.68743 66.9715 7.82155 66.6789 7.82155 66.3545C7.82155 66.0679 7.69053 65.8158 7.4285 65.5972C7.16625 65.3796 6.88209 65.2703 6.57625 65.2703C6.48263 65.2703 6.35317 65.3296 6.18785 65.4475C6.02254 65.5664 5.93954 65.697 5.93954 65.8404C5.93954 66.1084 6.09889 66.2425 6.41713 66.2425C6.51074 66.2425 6.58554 66.1847 6.64198 66.0694C6.69797 65.9539 6.72607 65.8342 6.72607 65.7096C7.01953 65.7096 7.16625 65.8499 7.16625 66.1303C7.16625 66.3111 7.08681 66.4651 6.92746 66.593C6.76834 66.7207 6.62007 66.7845 6.48264 66.7845C6.29541 66.7845 6.10641 66.6975 5.91609 66.5229C5.72598 66.3483 5.6306 66.1334 5.6306 65.8778C5.6306 65.5038 5.75232 65.1968 5.99576 64.9569C6.23919 64.717 6.52026 64.5971 6.8385 64.5971C7.23176 64.5971 7.54845 64.7591 7.78902 65.0833C8.02914 65.4071 8.1493 65.8311 8.1493 66.3545C8.1493 66.7409 7.97912 67.0994 7.63919 67.4296C7.29882 67.7602 6.93831 67.9253 6.55766 67.9253C5.52769 67.9253 4.68495 67.559 4.02966 66.8265C3.37415 66.0942 3.04639 65.2169 3.04639 64.1947C3.04639 63.2101 3.42726 62.3329 4.18878 61.5629C4.95008 60.7934 5.72753 60.4086 6.52026 60.4086C6.81969 60.4086 7.1428 60.5239 7.48936 60.7545C7.83571 60.9851 8.14311 61.3093 8.41155 61.7267L8.7579 54.6212H7.80296V54.2755C8.65809 54.2755 9.68784 54.1883 10.8926 54.0137L10.9117 54.3317Z" />
		<path d="M15.3743 66.1482C15.6675 66.1482 15.8145 66.2883 15.8145 66.5687C15.8145 66.7497 15.7348 66.9042 15.5757 67.0317C15.4166 67.1594 15.2652 67.2233 15.1216 67.2233C14.9406 67.2233 14.7549 67.1361 14.5646 66.9617C14.374 66.7873 14.2788 66.572 14.2788 66.3166C14.2788 65.961 14.3944 65.6821 14.6254 65.4799C14.8562 65.2771 15.1435 65.1758 15.4867 65.1758C15.8986 65.1758 16.2418 65.3207 16.5167 65.6104C16.7914 65.9006 16.9288 66.2699 16.9288 66.7183C16.9288 67.2481 16.696 67.6693 16.231 67.9806C15.766 68.292 15.2557 68.4478 14.7002 68.4478C13.6891 68.4478 12.7494 68.0289 11.8819 67.1903C11.0143 66.3525 10.5806 65.3347 10.5806 64.1378C10.5806 63.0098 11.0017 61.9847 11.8445 61.0623C12.6872 60.1397 13.5828 59.6787 14.5316 59.6787C15.2433 59.6787 15.9035 59.9137 16.5121 60.3842C17.1207 60.855 17.425 61.3458 17.425 61.8568C17.425 62.4926 17.1643 63.0134 16.6431 63.4184C16.1217 63.8234 15.4682 64.0261 14.6814 64.0261C13.9199 64.0261 13.3332 63.9201 12.9213 63.7081C12.5093 63.4961 12.3032 63.2002 12.3032 62.82C12.3032 62.4774 12.4311 62.1965 12.6872 61.9783C12.9432 61.7603 13.2115 61.6512 13.4923 61.6512C13.7419 61.6512 13.9681 61.7154 14.1713 61.8427C14.374 61.9708 14.4756 62.1219 14.4756 62.2961C14.4756 62.4831 14.4052 62.6577 14.2647 62.82C14.1244 62.982 13.9887 63.063 13.8575 63.063C13.6016 63.063 13.4737 62.9727 13.4737 62.7918C13.767 62.7115 13.9137 62.5725 13.9137 62.3751C13.9137 62.2209 13.8575 62.0989 13.7453 62.0095C13.6328 61.9203 13.4985 61.8754 13.3427 61.8754C13.2303 61.8754 13.1241 61.9673 13.0242 62.1514C12.9242 62.3353 12.8742 62.5236 12.8742 62.717C12.8742 62.991 13.0694 63.2263 13.4596 63.4228C13.8497 63.6193 14.3224 63.7171 14.8781 63.7171C15.3524 63.7171 15.7209 63.5742 15.9831 63.2871C16.2452 63.0005 16.3762 62.6141 16.3762 62.1279C16.3762 61.6231 16.1859 61.1402 15.805 60.6788C15.4243 60.2178 14.9563 59.987 14.4006 59.987C13.7076 59.987 13.1179 60.3749 12.631 61.1506C12.1439 61.9268 11.9007 62.9789 11.9007 64.3063C11.9007 65.4035 12.18 66.3102 12.7388 67.027C13.2973 67.7438 13.9854 68.1019 14.8033 68.1019C15.1838 68.1019 15.5631 67.9698 15.9409 67.7047C16.3184 67.44 16.5074 67.1049 16.5074 66.6995C16.5074 66.4255 16.3729 66.1918 16.1046 65.9984C15.8362 65.8054 15.543 65.7087 15.2245 65.7087C15.0497 65.7087 14.8998 65.7653 14.7752 65.8784C14.6502 65.992 14.5878 66.1272 14.5878 66.2845C14.5878 66.555 14.7471 66.6904 15.0654 66.6904C15.159 66.6904 15.2338 66.6315 15.2902 66.5142C15.3462 66.3972 15.3743 66.2752 15.3743 66.1482Z" />
		<path d="M20.2065 66.8773C19.938 66.6219 19.707 66.4937 19.5138 66.4937C19.4073 66.4937 19.2779 66.578 19.1249 66.7467C18.972 66.9144 18.8957 67.0488 18.8957 67.1486C18.8957 67.4538 19.0749 67.7408 19.4341 68.0086C19.7928 68.2764 20.247 68.4109 20.7962 68.4109C21.0583 68.4109 21.3393 68.2485 21.639 67.9247C21.9386 67.6007 22.0885 67.2513 22.0885 66.8775C22.0885 66.5595 21.9681 66.218 21.728 65.8537C21.4876 65.489 20.8086 64.858 19.6915 63.9604C19.2106 63.5804 18.8768 63.2611 18.6896 63.0024C18.5024 62.7437 18.3572 62.4493 18.2543 62.1187C18.1512 61.7885 18.0996 61.4583 18.0996 61.1279C18.0996 60.5295 18.343 59.9749 18.8299 59.4639C19.3168 58.9527 19.9099 58.6973 20.609 58.6973C21.1583 58.6973 21.6405 58.8296 22.0555 59.0945C22.4707 59.3594 22.6782 59.7224 22.6782 60.1836C22.6782 60.5576 22.5362 60.905 22.2522 61.2262C21.9681 61.547 21.645 61.7075 21.2831 61.7075C20.9897 61.7075 20.7431 61.5597 20.5435 61.2636C20.3437 60.9674 20.2439 60.6822 20.2439 60.408C20.2439 60.0652 20.4404 59.8937 20.8336 59.8937C20.9587 59.8937 21.074 59.9158 21.1802 59.9592C21.1676 59.9842 21.1395 60.0216 21.0959 60.0714C20.8713 60.3208 20.7588 60.5483 20.7588 60.7541C20.7588 60.9035 20.8713 61.0237 21.0959 61.1137C21.3205 61.2042 21.5078 61.2494 21.6576 61.2494C21.7826 61.2494 21.8948 61.1823 21.9948 61.0487C22.0944 60.9146 22.1447 60.7851 22.1447 60.6603C22.1447 60.2369 21.99 59.858 21.681 59.5247C21.3721 59.191 21.0023 59.0244 20.5716 59.0244C20.1722 59.0244 19.838 59.1788 19.5698 59.4871C19.3013 59.7956 19.1672 60.1243 19.1672 60.4733C19.1672 61.6887 19.7227 62.7173 20.8336 63.5587C22.0134 64.4685 22.6034 65.3631 22.6034 66.2419C22.6034 66.7529 22.4972 67.1937 22.285 67.5646C22.0728 67.9356 21.8169 68.2407 21.5173 68.4811C21.2176 68.7207 20.9804 68.867 20.8055 68.9199C20.6307 68.9728 20.3594 68.9994 19.9911 68.9994C19.5976 68.9994 19.2608 68.8064 18.9798 68.42C18.6989 68.0336 18.5586 67.6195 18.5586 67.1765C18.5586 66.8587 18.677 66.5721 18.9145 66.3165C19.1515 66.0608 19.4013 65.9329 19.6634 65.9329C19.8506 65.9329 20.0144 65.9827 20.1549 66.0823C20.2954 66.1823 20.3656 66.3069 20.3656 66.4565C20.3656 66.5876 20.3125 66.7279 20.2065 66.8773Z" />
		<path d="M34.4668 57.5102C34.3167 57.4352 34.1764 57.3976 34.0452 57.3976C33.8703 57.3976 33.7829 57.5974 33.7829 57.9964C33.7829 58.127 33.844 58.2485 33.9657 58.3607C34.0872 58.4729 34.2231 58.5289 34.3729 58.5289C34.9472 58.5289 35.2345 58.0239 35.2345 57.0143C35.2345 56.6095 35.074 56.259 34.7534 55.9628C34.4327 55.6667 34.0576 55.5185 33.628 55.5185C33.055 55.5185 32.5582 55.7351 32.1382 56.1684C31.7179 56.6013 31.5079 57.0895 31.5079 57.6315C31.5079 58.0741 31.673 58.5088 32.0034 58.9357C32.334 59.3626 32.9975 59.847 33.9945 60.3894C34.9917 60.9316 35.7023 61.3462 36.1264 61.6327C36.5499 61.9196 36.9098 62.2686 37.2061 62.6798C37.502 63.0912 37.6501 63.565 37.6501 64.101C37.6501 65.1046 37.1959 66.0627 36.2877 66.9758C35.3794 67.8889 34.376 68.3455 33.2775 68.3455C32.4785 68.3455 31.781 68.0367 31.1848 67.4197C30.5886 66.8029 30.2907 66.0861 30.2907 65.2697C30.2907 64.6151 30.5793 64.0231 31.1567 63.4933C31.7338 62.9639 32.3285 62.6988 32.9404 62.6988C33.5083 62.6988 33.9655 62.834 34.3121 63.1053C34.6584 63.3764 34.8317 63.7396 34.8317 64.1944C34.8317 64.6744 34.6365 65.092 34.2463 65.4472C33.8562 65.8024 33.4113 65.9803 32.9121 65.9803C32.6998 65.9803 32.5237 65.9038 32.3832 65.7511C32.2428 65.5984 32.1727 65.4253 32.1727 65.2321C32.1727 65.0391 32.2442 64.8818 32.388 64.7598C32.5314 64.6383 32.7156 64.5779 32.9404 64.5779C33.115 64.5779 33.2401 64.6494 33.3149 64.7928C32.984 64.8926 32.8187 65.0108 32.8187 65.1482C32.8187 65.497 32.9776 65.6716 33.2961 65.6716C33.5457 65.6716 33.7502 65.5395 33.9095 65.2744C34.0686 65.0097 34.1483 64.7273 34.1483 64.4281C34.1483 64.0481 34.0169 63.7195 33.7548 63.4419C33.4928 63.1646 33.1743 63.0257 32.7999 63.0257C32.3068 63.0257 31.9275 63.2536 31.6621 63.7084C31.3968 64.1634 31.2642 64.7587 31.2642 65.4944C31.2642 66.1614 31.4751 66.7359 31.8963 67.219C32.3176 67.7021 32.8371 67.9436 33.4554 67.9436C34.4163 67.9436 35.2389 67.6087 35.9225 66.9386C36.6059 66.2687 36.9476 65.3853 36.9476 64.2882C36.9476 63.7832 36.7994 63.355 36.503 63.0029C36.2065 62.6505 35.8413 62.3591 35.4073 62.1287C34.9736 61.8979 34.3789 61.6301 33.624 61.3245C32.8685 61.0195 32.2583 60.7435 31.7934 60.4972C31.3282 60.2509 30.9351 59.9285 30.6138 59.5294C30.292 59.1306 30.1313 58.6447 30.1313 58.0712C30.1313 57.2796 30.4857 56.6097 31.1943 56.0611C31.9025 55.5125 32.7313 55.2383 33.68 55.2383C34.2917 55.2383 34.8098 55.3866 35.2343 55.6827C35.6587 55.9783 35.871 56.3665 35.871 56.8465C35.871 57.3885 35.7289 57.853 35.4449 58.2394C35.1608 58.6261 34.7848 58.819 34.3167 58.819C33.9547 58.819 33.6426 58.7398 33.3806 58.5805C33.1183 58.4218 32.9871 58.2085 32.9871 57.9402C32.9871 57.716 33.0668 57.512 33.2259 57.3277C33.385 57.1442 33.5895 57.0519 33.8394 57.0519C34.2572 57.0517 34.4668 57.205 34.4668 57.5102Z" />
		<path d="M42.1024 65.3443C41.5781 65.3753 41.1552 65.4176 40.8336 65.4704C40.5123 65.5236 40.2531 65.6698 40.0566 65.91C39.8599 66.1499 39.7616 66.4008 39.7616 66.6626C39.7616 66.9118 39.8284 67.1176 39.9628 67.2794C40.0971 67.4414 40.2733 67.5226 40.4919 67.5226C40.8726 67.5226 41.3001 67.2827 41.7746 66.8027L42.1024 65.3443ZM40.8571 62.0346C40.8133 62.2903 40.6665 62.4179 40.4171 62.4179C40.2797 62.4179 40.1673 62.3697 40.0801 62.273C39.9922 62.1765 39.9488 62.0504 39.9488 61.8943C39.9488 61.7137 40.0283 61.544 40.1876 61.3849C40.3467 61.226 40.5169 61.1463 40.698 61.1463C41.5407 61.1463 41.9619 61.3895 41.9619 61.8757C41.9619 62.281 41.7465 62.6534 41.3159 62.9931C40.8852 63.3326 40.5138 63.5024 40.2018 63.5024C39.8333 63.5024 39.5213 63.3981 39.2652 63.1894C39.0092 62.9805 38.8815 62.7017 38.8815 62.3527C38.8815 61.6297 39.2214 60.8942 39.9019 60.1464C40.5822 59.3984 41.2908 59.0244 42.0274 59.0244C42.6326 59.0244 43.1416 59.2849 43.5535 59.8052C43.9656 60.3255 44.1716 60.9659 44.1716 61.7264C44.1716 62.2683 44.095 62.7329 43.9421 63.1193C43.7892 63.5059 43.5566 63.9607 43.2448 64.4841C42.4456 65.8057 42.046 67.0178 42.046 68.121C42.046 68.2456 42.0521 68.3733 42.065 68.5041H41.681L41.6996 67.2606C40.9195 67.772 40.3576 68.0272 40.0143 68.0272C39.5897 68.0272 39.2402 67.898 38.9658 67.6395C38.6911 67.381 38.5537 67.0431 38.5537 66.625C38.5537 66.2326 38.758 65.8854 39.167 65.5826C39.5757 65.2803 40.0298 65.1294 40.5293 65.1294C40.8852 65.1294 41.4531 65.0918 42.2334 65.0172C42.6953 64.0136 42.9263 63.1193 42.9263 62.3341C42.9263 60.5266 42.5111 59.6226 41.6812 59.6226C40.9195 59.6226 40.3733 59.8672 40.0427 60.3547C39.7116 60.8429 39.5463 61.5157 39.5463 62.3735C39.5463 62.6098 39.6166 62.8119 39.757 62.9798C39.8975 63.1478 40.0706 63.2315 40.2768 63.2315C40.5326 63.2315 40.7759 63.1133 41.0067 62.8763C41.238 62.6393 41.3533 62.3808 41.3533 62.1004C41.3533 61.9446 41.2816 61.8089 41.1379 61.6936C40.9943 61.5783 40.8352 61.5208 40.6606 61.5208C40.5855 61.5208 40.5185 61.5588 40.459 61.6345C40.3999 61.7109 40.3702 61.7899 40.3702 61.8722C40.3702 62.0302 40.4357 62.1097 40.5667 62.1097C40.673 62.1094 40.7694 62.0844 40.8571 62.0346Z" />
		<path d="M50.9219 61.0163C50.6285 61.0163 50.4815 60.8886 50.4815 60.6332C50.4815 60.5148 50.557 60.3869 50.7079 60.2497C50.8584 60.1125 51.0062 60.0439 51.151 60.0439C51.6536 60.0439 51.905 60.3803 51.905 61.0537C51.905 61.4339 51.7405 61.7783 51.4117 62.0868C51.0828 62.3951 50.74 62.5493 50.3828 62.5493C50.1321 62.5493 49.8802 62.386 49.6264 62.0587C49.3725 61.7316 49.2462 61.4215 49.2462 61.1285C49.2462 60.5053 49.485 59.9569 49.9639 59.4829C50.4426 59.0097 50.9912 58.7725 51.6106 58.7725C52.0486 58.7725 52.4538 59.0312 52.8261 59.5484C53.1985 60.0658 53.3844 60.7078 53.3844 61.4744C53.3844 63.6308 52.078 66.0491 49.4659 68.7291C48.9846 67.3395 48.3426 65.8371 47.5397 64.2228C46.7363 62.6088 46.1098 61.5523 45.6599 61.0537L44.7421 61.4182L44.6113 60.9791C45.354 60.7235 45.9188 60.4911 46.3061 60.2824C46.6932 60.0735 47.1893 59.7575 47.7948 59.3335L48.0383 59.7075L47.0457 60.3245L47.8803 62.3158L48.5276 64.1204C48.9027 65.186 49.3123 66.3919 49.7561 67.7383C50.6937 66.8471 51.4628 65.8297 52.063 64.6858C52.6629 63.5423 52.963 62.4654 52.963 61.456C52.963 60.92 52.7937 60.4573 52.456 60.0676C52.1179 59.6781 51.7142 59.4831 51.2444 59.4831C50.8314 59.4831 50.4886 59.5924 50.2162 59.8104C49.9437 60.0288 49.8079 60.3092 49.8079 60.6518C49.8079 60.9758 49.8782 61.2394 50.0194 61.4417C50.1602 61.6442 50.3534 61.7457 50.5981 61.7457C50.8679 61.7457 51.1156 61.6802 51.3415 61.5494C51.5673 61.4184 51.6806 61.2533 51.6806 61.0539C51.6806 60.9229 51.6217 60.8076 51.5051 60.708C51.388 60.6084 51.2632 60.5582 51.1308 60.5582C50.9912 60.5582 50.9219 60.7109 50.9219 61.0163Z" />
		<path d="M58.9512 66.1482C59.2444 66.1482 59.3914 66.2883 59.3914 66.5687C59.3914 66.7497 59.3119 66.9042 59.1528 67.0317C58.9932 67.1594 58.8423 67.2233 58.6985 67.2233C58.5174 67.2233 58.3318 67.1361 58.1412 66.9617C57.9511 66.7873 57.8559 66.572 57.8559 66.3166C57.8559 65.961 57.9715 65.6821 58.2023 65.4799C58.4331 65.2771 58.7204 65.1758 59.0634 65.1758C59.4755 65.1758 59.8187 65.3207 60.0936 65.6104C60.3687 65.9006 60.5057 66.2699 60.5057 66.7183C60.5057 67.2481 60.2728 67.6693 59.8081 67.9806C59.3431 68.292 58.8324 68.4478 58.2771 68.4478C57.2662 68.4478 56.3265 68.0289 55.459 67.1903C54.591 66.3525 54.1572 65.3347 54.1572 64.1378C54.1572 63.0098 54.5788 61.9847 55.4216 61.0623C56.2641 60.1397 57.1599 59.6787 58.1087 59.6787C58.82 59.6787 59.4801 59.9137 60.0889 60.3842C60.6973 60.855 61.0016 61.3458 61.0016 61.8568C61.0016 62.4926 60.7411 63.0134 60.22 63.4184C59.6986 63.8234 59.0448 64.0261 58.2583 64.0261C57.497 64.0261 56.9103 63.9201 56.4982 63.7081C56.0861 63.4961 55.8801 63.2002 55.8801 62.82C55.8801 62.4774 56.0078 62.1965 56.2639 61.9783C56.5199 61.7603 56.7884 61.6512 57.0692 61.6512C57.3186 61.6512 57.545 61.7154 57.7484 61.8427C57.9509 61.9708 58.0522 62.1219 58.0522 62.2961C58.0522 62.4831 57.9821 62.6577 57.8416 62.82C57.7012 62.982 57.5654 63.063 57.4344 63.063C57.1783 63.063 57.0508 62.9727 57.0508 62.7918C57.3438 62.7115 57.4906 62.5725 57.4906 62.3751C57.4906 62.2209 57.4344 62.0989 57.3217 62.0095C57.2095 61.9203 57.0752 61.8754 56.9196 61.8754C56.8072 61.8754 56.7009 61.9673 56.6011 62.1514C56.5011 62.3353 56.4511 62.5236 56.4511 62.717C56.4511 62.991 56.6465 63.2263 57.0362 63.4228C57.4268 63.6193 57.8991 63.7171 58.455 63.7171C58.9293 63.7171 59.2975 63.5742 59.56 63.2871C59.8218 63.0005 59.9528 62.6141 59.9528 62.1279C59.9528 61.6231 59.7627 61.1402 59.3819 60.6788C59.001 60.2178 58.5329 59.987 57.9774 59.987C57.2843 59.987 56.6945 60.3749 56.2074 61.1506C55.7208 61.9268 55.4773 62.9789 55.4773 64.3063C55.4773 65.4035 55.7568 66.3102 56.3152 67.027C56.8742 67.7438 57.562 68.1019 58.3802 68.1019C58.7609 68.1019 59.14 67.9698 59.5177 67.7047C59.8955 67.44 60.0843 67.1049 60.0843 66.6995C60.0843 66.4255 59.95 66.1918 59.6813 65.9984C59.4131 65.8054 59.1196 65.7087 58.8016 65.7087C58.6263 65.7087 58.4767 65.7653 58.3519 65.8784C58.2271 65.992 58.1649 66.1272 58.1649 66.2845C58.1649 66.555 58.3238 66.6904 58.642 66.6904C58.7359 66.6904 58.8107 66.6315 58.8671 66.5142C58.9231 66.3972 58.9512 66.2752 58.9512 66.1482Z" />
		<path d="M69.8422 68.2146C69.1243 68.4264 68.5433 68.6443 68.1005 68.8688L67.8854 66.6625C67.0986 67.8032 66.153 68.3732 65.0482 68.3732C64.2057 68.3732 63.4313 68.0384 62.7258 67.3687C62.0207 66.6986 61.668 65.8835 61.668 64.9237C61.668 64.5311 61.7835 64.0949 62.0145 63.6149C62.2454 63.1351 62.5094 62.7472 62.8053 62.4508C63.1018 62.1549 63.3576 61.8168 63.5736 61.4366C63.789 61.0564 63.8963 60.7572 63.8963 60.5389C63.8963 59.8724 63.609 59.5386 63.035 59.5386C62.7849 59.5386 62.5465 59.6108 62.3184 59.7535C62.0909 59.8972 61.9771 60.0746 61.9771 60.2869C61.9771 60.4301 62.0362 60.5562 62.1546 60.6649C62.273 60.7744 62.4012 60.8289 62.5388 60.8289C62.7008 60.8289 62.8024 60.8136 62.8431 60.7822C62.8834 60.7507 62.9037 60.7009 62.9037 60.6326C62.9037 60.4768 62.7699 60.3738 62.5012 60.3241C62.6324 60.1742 62.7384 60.0994 62.8196 60.0994C62.9316 60.0994 63.0334 60.1512 63.1239 60.2539C63.214 60.3568 63.2596 60.4768 63.2596 60.614C63.2596 60.8193 63.1737 61.0108 63.002 61.1889C62.83 61.3664 62.6417 61.4552 62.4357 61.4552C62.2423 61.4552 62.0623 61.3602 61.897 61.1701C61.7315 60.9798 61.6489 60.7822 61.6489 60.5763C61.6489 60.1899 61.7926 59.8159 62.0798 59.4548C62.3669 59.0931 62.6727 58.9121 62.9974 58.9121C63.353 58.9121 63.6465 59.0606 63.8775 59.3563C64.1083 59.6524 64.2238 60.0091 64.2238 60.427C64.2238 61.0006 64.0707 61.5552 63.7651 62.0912C63.0969 63.2688 62.7632 64.1821 62.7632 64.8299C62.7632 65.7966 62.996 66.557 63.4608 67.1113C63.9257 67.6659 64.5518 67.9432 65.3379 67.9432C66.2993 67.9432 67.1232 67.3012 67.8095 66.0174C67.5853 64.0352 67.2571 62.0744 66.8266 60.1362L65.8343 60.193L65.8721 59.7911C66.9829 59.7723 68.0191 59.601 68.9802 59.277L69.0742 59.6508L68.1189 59.9171C68.1189 62.025 68.2311 64.7847 68.4561 68.1958C68.9056 68.1024 69.3237 67.9618 69.7107 67.775L69.8422 68.2146Z" />
		<path d="M72.4078 61.8573C72.6629 60.9973 73.0239 60.3398 73.4889 59.8848C73.9536 59.43 74.4265 59.202 74.907 59.202C75.3689 59.202 75.7652 59.3908 76.0968 59.7679C76.4274 60.1448 76.5927 60.6045 76.5927 61.1467C76.5927 61.7827 76.4053 62.2999 76.0312 62.6989C75.6564 63.0977 75.1728 63.2971 74.5797 63.2971C74.2738 63.2971 74.0147 63.1789 73.8029 62.9417C73.5902 62.7049 73.484 62.4214 73.484 62.0914C73.484 61.929 73.623 61.7283 73.9007 61.4881C74.1787 61.2482 74.4051 61.1283 74.5799 61.1283C74.8291 61.1283 75.0444 61.1874 75.2259 61.3058C75.4067 61.4244 75.4972 61.5895 75.4972 61.8013C75.4972 62.0381 75.2877 62.2032 74.8698 62.2968C74.9449 62.1098 74.9827 61.9573 74.9827 61.8387C74.9827 61.5957 74.8979 61.4742 74.7295 61.4742C74.5857 61.4742 74.4644 61.5616 74.3648 61.736C74.2643 61.9106 74.2143 62.085 74.2143 62.2594C74.2143 62.4216 74.2845 62.5805 74.4257 62.7363C74.566 62.8921 74.7138 62.9698 74.87 62.9698C75.2943 62.9698 75.6298 62.8189 75.8763 62.5168C76.1231 62.2145 76.2466 61.8358 76.2466 61.3808C76.2466 61.0568 76.0996 60.7777 75.8062 60.5438C75.5129 60.3101 75.1788 60.1933 74.8045 60.1933C74.4173 60.1933 74.0647 60.2949 73.7467 60.4974C73.4282 60.6996 73.1332 61.0597 72.8619 61.5771C72.5903 62.0945 72.4545 62.4183 72.4545 62.5493C72.4545 62.6491 72.5729 64.3972 72.8101 67.7941C73.5719 67.5635 74.2643 67.2517 74.8889 66.8591L75.0013 67.3172C74.3022 67.6662 73.6526 67.9404 73.0538 68.14C72.4545 68.3392 71.6896 68.4983 70.7597 68.6167V68.14C71.3088 68.14 71.8399 68.0683 72.3516 67.9251C72.3516 67.2643 72.2033 66.1239 71.9065 64.503C71.61 62.8828 71.2933 61.5176 70.9567 60.4084L69.627 60.8851L69.5332 60.5766C70.744 60.2648 71.7087 59.7788 72.4264 59.1182C72.3887 59.648 72.3702 60.0127 72.3702 60.2121C72.3699 60.7605 72.3821 61.3091 72.4078 61.8573Z" />
		<path d="M79.663 66.8773C79.3946 66.6219 79.1636 66.4937 78.9701 66.4937C78.8639 66.4937 78.7347 66.578 78.5815 66.7467C78.4288 66.9144 78.352 67.0488 78.352 67.1486C78.352 67.4538 78.5317 67.7408 78.8907 68.0086C79.2496 68.2764 79.7038 68.4109 80.2528 68.4109C80.5153 68.4109 80.7961 68.2485 81.0953 67.9247C81.3954 67.6007 81.545 67.2513 81.545 66.8775C81.545 66.5595 81.4251 66.218 81.1848 65.8537C80.944 65.489 80.2654 64.858 79.1478 63.9604C78.6674 63.5804 78.3337 63.2611 78.1462 63.0024C77.959 62.7437 77.8138 62.4493 77.7109 62.1187C77.608 61.7885 77.5566 61.4583 77.5566 61.1279C77.5566 60.5295 77.8001 59.9749 78.287 59.4639C78.7738 58.9527 79.3665 58.6973 80.0661 58.6973C80.6151 58.6973 81.0969 58.8296 81.5121 59.0945C81.9275 59.3594 82.1348 59.7224 82.1348 60.1836C82.1348 60.5576 81.9932 60.905 81.709 61.2262C81.4249 61.547 81.102 61.7075 80.7397 61.7075C80.4465 61.7075 80.1999 61.5597 80.0003 61.2636C79.8 60.9674 79.7005 60.6822 79.7005 60.408C79.7005 60.0652 79.897 59.8937 80.2905 59.8937C80.415 59.8937 80.5306 59.9158 80.6368 59.9592C80.6242 59.9842 80.5961 60.0216 80.5527 60.0714C80.3276 60.3208 80.2154 60.5483 80.2154 60.7541C80.2154 60.9035 80.3276 61.0237 80.5527 61.1137C80.7771 61.2042 80.9648 61.2494 81.1144 61.2494C81.239 61.2494 81.3512 61.1823 81.4517 61.0487C81.5508 60.9146 81.6013 60.7851 81.6013 60.6603C81.6013 60.2369 81.4463 59.858 81.1374 59.5247C80.8289 59.191 80.4586 59.0244 80.0282 59.0244C79.6287 59.0244 79.2946 59.1788 79.0266 59.4871C78.7579 59.7956 78.6236 60.1243 78.6236 60.4733C78.6236 61.6887 79.179 62.7173 80.2902 63.5587C81.47 64.4685 82.0598 65.3631 82.0598 66.2419C82.0598 66.7529 81.9536 67.1937 81.7416 67.5646C81.5291 67.9356 81.2733 68.2407 80.9739 68.4811C80.674 68.7207 80.4365 68.867 80.2619 68.9199C80.0875 68.9728 79.8158 68.9994 79.4477 68.9994C79.0545 68.9994 78.7172 68.8064 78.4363 68.42C78.1555 68.0336 78.0152 67.6195 78.0152 67.1765C78.0152 66.8587 78.1334 66.5721 78.3708 66.3165C78.6079 66.0608 78.8577 65.9329 79.1197 65.9329C79.3074 65.9329 79.4712 65.9827 79.6117 66.0823C79.752 66.1823 79.8222 66.3069 79.8222 66.4565C79.8224 66.5876 79.7693 66.7279 79.663 66.8773Z" />
	</g>
</svg>