<svg	xmlns="http://www.w3.org/2000/svg"
			viewBox="0 0 178 33"
			width="100%" height="100%"
			preserveAspectRatio="xMidYMid meet"
			aria-label="Logo Savoy Verre Sàrl">
	<style>
		/* Couleur par défaut (thème clair). */
		.dynamic-color {
			fill: #1D1D1B;
			transition: fill 0.5s ease; /* Transition douce de 0.5 seconde. */
		}
		/* Couleur adaptée au thème sombre. */
		@media (prefers-color-scheme: dark) {
			.dynamic-color {
				fill: #DDDDDA;
			}
		}
	</style>
	<g class="dynamic-color">
		<path d="M22.4497 21.8141C21.3338 19.1021 18.9326 17.0182 16.3135 15.1254C15.0215 14.1921 13.7075 13.2808 12.3914 12.3717C11.0884 11.4582 9.80523 10.5271 8.5881 9.5346C5.586 7.09276 3.07251 4.51038 3.49069 0.948627C3.51931 0.696098 3.58313 0.294248 3.10333 0.162494C2.62572 0.028544 2.47385 0.399651 2.28457 0.61485C-0.334566 3.60128 -0.572269 6.99175 0.911174 10.5952C2.02706 13.3072 4.4283 15.3911 7.04744 17.2839C8.3394 18.2172 9.65337 19.1285 10.9695 20.0376C12.2725 20.9511 13.5557 21.8822 14.7728 22.8747C17.7749 25.3187 20.2884 27.9011 19.8702 31.4629C19.8416 31.7154 19.7778 32.1172 20.2576 32.249C20.7352 32.383 20.887 32.0118 21.0763 31.7966C23.6977 28.808 23.9332 25.4176 22.4519 21.8141H22.4497Z" />
		<path d="M9.12516 32.2117H0L4.22143 24.1505L9.12516 32.2117Z" />
		<path d="M25.0491 0H16.5622L35.0986 32.2117L39.2474 24.2889L25.0491 0Z" />
		<path d="M42.342 0H51.4671L47.2457 8.06335L42.342 0Z" />
		<path d="M60.786 8.77043C61.0567 10.3537 62.4741 10.5733 63.4535 10.5733C64.3823 10.5733 65.802 10.3032 65.802 9.07346C65.802 6.51304 58.6246 8.16436 58.6246 3.66496C58.6246 1.18798 60.9555 0.0241547 63.1344 0.0241547C65.6501 0.0241547 67.9655 1.11991 67.9655 3.89992L65.3992 3.52881C65.0778 2.13002 63.8453 2.07952 63.0177 2.07952C62.1902 2.07952 61.1932 2.43306 61.1932 3.44537C61.1932 4.3391 61.7676 4.54112 64.7917 5.26577C65.6875 5.48536 68.3727 6.04092 68.3727 8.77043C68.3727 10.9773 66.6493 12.6286 63.3567 12.6286C60.6539 12.6286 58.2219 11.3133 58.2219 8.34882L60.7882 8.77043H60.786Z" />
		<path d="M68.7908 12.3432L74.2646 0.329391H76.9322L82.3201 12.3432H79.7538L78.5719 9.68173H72.4752L71.2097 12.3432H68.7952H68.7908ZM75.6314 2.58678L73.6043 7.2377H77.6079L75.649 2.58678H75.6314Z" />
		<path d="M88.4013 12.3432H85.4125L81.4926 0.311813H84.2283L86.9135 8.77042H86.9465L89.6647 0.311813H92.4005L88.3969 12.3432H88.4013Z" />
		<path d="M98.8052 12.4947C95.3608 12.4947 92.5721 9.71466 92.5721 6.27588C92.5721 2.8371 95.3586 0.0417175 98.8052 0.0417175C102.252 0.0417175 105.054 2.82173 105.054 6.27588C105.054 9.73003 102.234 12.4947 98.8052 12.4947ZM95.123 6.27808C95.123 8.28293 96.7958 9.95182 98.8052 9.95182C100.815 9.95182 102.454 8.28293 102.454 6.27808C102.454 4.27322 100.817 2.58677 98.8052 2.58677C96.7936 2.58677 95.123 4.27102 95.123 6.27808Z" />
		<path d="M109.7 7.6593L105.256 0.311813H108.245L111.065 5.06374L113.869 0.311813H116.824L112.348 7.72518V12.3432H109.696V7.6593H109.7Z" />
		<path d="M128.564 12.3432H125.575L121.658 0.311813H124.394L127.079 8.77042H127.112L129.83 0.311813H132.566L128.562 12.3432H128.564Z" />
		<path d="M135.861 7.54072V10.1011H142.666V12.3256H133.292V0.261307H142.091V2.48575H135.858V5.19769H141.365V7.54072H135.858H135.861Z" />
		<path d="M151.417 7.89426L154.795 12.3607H151.553L148.514 8.03041H147.213V12.3607H144.546V0.311813H149.984C153.024 0.311813 154.19 2.21566 154.19 4.17001C154.19 5.80376 153.33 7.45508 151.318 7.89426H151.419H151.417ZM147.211 2.36718V5.99041H149.271C150.537 5.99041 151.584 5.70495 151.584 4.17001C151.584 2.63508 150.537 2.36718 149.271 2.36718H147.211Z" />
		<path d="M163.61 7.89426L166.989 12.3607H163.747L160.707 8.03041H159.406V12.3607H156.739V0.311813H162.177C165.217 0.311813 166.383 2.21566 166.383 4.17001C166.383 5.80376 165.523 7.45508 163.511 7.89426H163.612H163.61ZM159.406 2.36718V5.99041H161.466C162.732 5.99041 163.78 5.70495 163.78 4.17001C163.78 2.63508 162.732 2.36718 161.466 2.36718H159.406Z" />
		<path d="M171.195 7.54072V10.1011H178V12.3256H168.626V0.261307H177.426V2.48575H171.192V5.19769H176.699V7.54072H171.192H171.195Z" />
		<path d="M63.1784 20.2089C63.8475 20.2089 64.4418 20.3121 64.9612 20.5207C65.4806 20.7271 65.89 21.0301 66.1893 21.4276C66.4887 21.825 66.6383 22.3103 66.6383 22.8879C66.6383 23.6828 66.4006 24.3503 65.9296 24.8905C65.4564 25.4329 64.8688 25.905 64.1645 26.3069L66.5701 28.6389C66.8012 28.2481 67.0037 27.8352 67.1754 27.4048C67.3492 26.9722 67.4923 26.5396 67.6089 26.1005H70.2919C70.118 26.7461 69.8649 27.4356 69.5304 28.1734C69.1958 28.9112 68.7689 29.6007 68.2494 30.2463L70.7937 32.7167H67.6089L66.6405 31.7659C66.306 31.9965 65.9472 32.1941 65.5665 32.361C65.1857 32.5279 64.7807 32.6574 64.3537 32.7497C63.9268 32.8419 63.4712 32.888 62.9869 32.888C62.0515 32.888 61.2504 32.7409 60.5813 32.4488C59.9122 32.1546 59.3972 31.7439 59.0406 31.2147C58.6819 30.6855 58.5036 30.075 58.5036 29.3833C58.5036 28.797 58.5938 28.292 58.7721 27.8726C58.9504 27.4531 59.2101 27.0842 59.5513 26.768C59.8924 26.4518 60.2974 26.1598 60.7706 25.8962C60.4713 25.5515 60.2314 25.2265 60.0531 24.9213C59.8748 24.616 59.7471 24.3152 59.6723 24.0144C59.5975 23.7157 59.5601 23.3995 59.5601 23.0635C59.5601 22.4772 59.7119 21.97 60.0179 21.544C60.3238 21.118 60.7508 20.7908 61.2988 20.5602C61.8469 20.3296 62.4719 20.2154 63.1762 20.2154L63.1784 20.2089ZM62.2782 27.429C62.0581 27.5915 61.8711 27.7562 61.7148 27.9297C61.5585 28.1031 61.4375 28.2854 61.3516 28.483C61.2658 28.6807 61.2218 28.898 61.2218 29.1396C61.2218 29.6337 61.4067 30.0223 61.7764 30.3056C62.1462 30.5889 62.6084 30.7294 63.1608 30.7294C63.5306 30.7294 63.8761 30.6833 64.1997 30.5911C64.5232 30.4989 64.8159 30.3715 65.0823 30.2112L62.2782 27.4312V27.429ZM63.163 22.1962C62.8747 22.1962 62.5996 22.2686 62.3399 22.4114C62.0802 22.5563 61.9503 22.8286 61.9503 23.2326C61.9503 23.5203 62.0229 23.797 62.166 24.0627C62.3113 24.3284 62.5027 24.5985 62.7448 24.8752C63.229 24.6094 63.601 24.3459 63.8607 24.0802C64.1204 23.8145 64.2503 23.5115 64.2503 23.1645C64.2503 22.8176 64.1358 22.5717 63.9047 22.4223C63.6736 22.273 63.4249 22.1983 63.1608 22.1983L63.163 22.1962Z" />
		<path d="M81.7633 32.7475C78.3848 32.7475 75.649 30.018 75.649 26.6473C75.649 23.2766 78.3848 20.5471 81.7633 20.5471C84.0765 20.5471 86.0354 21.8273 87.0676 23.6652C86.0376 24.2054 85.9539 24.2559 84.805 24.8115C84.213 23.7838 83.0663 23.0767 81.7655 23.0767C79.789 23.0767 78.1846 24.6951 78.1846 26.6495C78.1846 28.6038 79.789 30.2222 81.7655 30.2222C83.1169 30.2222 84.2988 29.4976 84.9063 28.3513C86.0552 28.942 86.0882 29.0079 87.1688 29.4976C86.1388 31.4343 84.1447 32.7497 81.7633 32.7497V32.7475Z" />
		<path d="M90.6816 27.9121V30.4725H97.4869V32.697H88.113V20.6327H96.9125V22.8571H90.6794V25.5691H96.1861V27.9121H90.6794H90.6816Z" />
		<path d="M105.848 28.2656L109.227 32.7321H105.985L102.945 28.4018H101.644V32.7321H98.9769V20.6832H104.415C107.455 20.6832 108.622 22.587 108.622 24.5414C108.622 26.1751 107.761 27.8265 105.749 28.2656H105.851H105.848ZM101.644 22.7386V26.3618H103.705C104.97 26.3618 106.018 26.0763 106.018 24.5414C106.018 23.0065 104.97 22.7386 103.705 22.7386H101.644Z" />
		<path d="M109.632 32.7145L115.103 20.7007H117.771L123.159 32.7145H120.593L119.411 30.0531H113.314L112.048 32.7145H109.634H109.632ZM116.472 22.9581L114.445 27.6091H118.449L116.49 22.9581H116.472Z" />
		<path d="M124.31 20.6832H127.754L130.541 25.9907L133.277 20.6832H136.772V32.7145H134.289V24.2054H134.256L131.571 29.682H129.526L126.859 24.2889H126.826V32.7145H124.31V20.6832Z" />
		<path d="M138.953 20.6832H141.605V32.7145H138.953V20.6832Z" />
		<path d="M155.033 32.4598H150.574C150.032 32.6289 149.46 32.7123 148.868 32.7123C145.49 32.7123 142.736 29.9653 142.736 26.5946C142.736 23.2239 145.49 20.4438 148.868 20.4438C152.247 20.4438 155.033 23.1734 155.033 26.5946C155.033 28.0768 154.593 29.021 153.715 29.9477H155.015L155.033 32.4576V32.4598ZM145.254 26.5968C145.254 28.5687 146.892 30.1519 148.868 30.1519C150.845 30.1519 152.465 28.5687 152.465 26.5968C152.465 24.6248 150.878 23.0087 148.868 23.0087C146.859 23.0087 145.254 24.5919 145.254 26.5968Z" />
		<path d="M166.535 28.1646C166.535 31.4168 164.609 33 161.385 33C158.161 33 156.25 31.4497 156.25 28.1646V20.6832H158.902V28.1646C158.902 29.48 159.239 30.7756 161.385 30.7756C163.276 30.7756 163.885 29.9675 163.885 28.1646V20.6832H166.537V28.1646H166.535Z" />
		<path d="M170.691 27.9121V30.4725H177.496V32.697H168.122V20.6327H176.922V22.8571H170.688V25.5691H176.195V27.9121H170.688H170.691Z" />
		<path d="M94.3483 17.2774C94.1877 17.4377 93.9742 17.6353 93.7079 17.8637C93.4415 18.0942 93.1576 18.3358 92.8517 18.5883C92.5458 18.8408 92.2464 19.0802 91.9515 19.3064C91.6566 19.5304 91.4013 19.717 91.1812 19.8685H89.4666V19.6445C89.6515 19.4271 89.8672 19.1702 90.1159 18.876C90.3646 18.5817 90.6089 18.2765 90.851 17.9603C91.0931 17.6441 91.2956 17.3586 91.4563 17.1061H94.3461V17.2796L94.3483 17.2774Z" />
	</g>
</svg>