<svg	xmlns="http://www.w3.org/2000/svg"
			viewBox="0 0 831.8 661"
			width="100%" height="100%"
			preserveAspectRatio="xMidYMid meet"
			aria-label="Logo BâtiLavaux Construction">
	<style>
		/* Couleur par défaut (thème clair). */
		.dynamic-color {
			fill: #424242;
			transition: fill 0.5s ease; /* Transition douce de 0.5 seconde. */
		}
		/* Couleur adaptée au thème sombre. */
		@media (prefers-color-scheme: dark) {
			.dynamic-color {
				fill: #696969;
			}
		}
	</style>
	<g>
		<path d="m360.5 197.4-139-89.1-21.2-13.6h-.1v.1L31 205.2l12.6 19.2L192.9 127l133.9 85.8 11.7 7.6h470.3v-23z" fill="#ee2e24" />
		<path d="m327.1 229.4-115.6-74.1-21.2-13.6-.1.1L21 252.2l12.6 19.2L182.9 174l97.9 62.8 24.3 15.6h503.7v-23z" fill="#fdcf0a" />
		<g class="dynamic-color">
			<path d="m295.7 260.4-92.2-59.1-21.2-13.6-.1.1L13 298.2l12.6 19.2L174.9 220l63 40.4 35.8 23h535.1v-23z" />
			<path d="M83 386.6v-53.3h16.5c5.6 0 9.8 1.2 12.7 3.7s4.3 6.1 4.3 10.9c0 2.7-.6 5-1.8 7s-2.8 3.4-4.9 4.3c2.4.7 4.2 2.1 5.5 4.1 1.3 2.1 1.9 4.6 1.9 7.6 0 5.2-1.4 9.1-4.3 11.7-2.8 2.6-7 4-12.4 4zm10.7-31h5.6q6.3 0 6.3-6.6c0-2.4-.5-4.2-1.5-5.2s-2.6-1.6-4.8-1.6h-5.7v13.4zm0 7.8v14.2h6.9c1.9 0 3.4-.6 4.4-1.8q1.5-1.8 1.5-5.1c0-4.8-1.7-7.2-5.2-7.4h-7.6z" />
			<path d="M143.4 386.6c-.3-.6-.6-1.6-.9-3.1-1.9 2.5-4.4 3.8-7.5 3.8-3.3 0-6.1-1.1-8.3-3.3s-3.3-5-3.3-8.5c0-4.2 1.3-7.4 4-9.6 2.6-2.3 6.5-3.4 11.4-3.5h3.1v-3.2c0-1.8-.3-3-.9-3.8-.6-.7-1.5-1.1-2.7-1.1q-3.9 0-3.9 4.5H124c0-3.7 1.4-6.7 4.1-9.1s6.2-3.6 10.4-3.6 7.7 1.1 10.1 3.4 3.6 5.5 3.6 9.7v18.6c0 3.4.5 6.1 1.5 8v.6h-10.3zm7.6-46v.4h-8.1l-4.6-5.3-4.6 5.3h-7.9v-.6l9.5-10.1h5.9zm-13.7 38.6c1.1 0 2.1-.2 2.9-.7s1.4-1 1.8-1.6v-8.3h-2.5c-1.8 0-3.1.6-4.2 1.7q-1.5 1.65-1.5 4.5c0 3 1.2 4.4 3.5 4.4" />
			<path d="M171.9 337.3v9.7h5.3v7.8h-5.3v19.7c0 1.6.2 2.6.6 3.2s1.3.9 2.5.9c1 0 1.8-.1 2.5-.3l-.1 8.1c-1.8.7-3.7 1-5.7 1-6.7 0-10.1-3.8-10.1-11.5v-21.1H157V347h4.6v-9.7z" />
			<path d="M182.9 336.8c0-1.6.5-2.9 1.5-4 1-1 2.4-1.5 4.1-1.5s3.1.5 4.1 1.5 1.5 2.3 1.5 4c0 1.6-.5 2.9-1.5 4-1 1-2.4 1.6-4.1 1.6s-3.1-.5-4.1-1.6-1.5-2.5-1.5-4m10.9 49.8h-10.4V347h10.4z" />
			<path d="M213.1 377.7H232v8.9h-29.7v-53.3h10.8z" />
			<path d="M256.5 386.6c-.3-.6-.6-1.6-.9-3.1-1.9 2.5-4.4 3.8-7.5 3.8-3.3 0-6.1-1.1-8.3-3.3s-3.3-5-3.3-8.5c0-4.2 1.3-7.4 4-9.6 2.6-2.3 6.5-3.4 11.4-3.5h3.1v-3.2c0-1.8-.3-3-.9-3.8-.6-.7-1.5-1.1-2.7-1.1q-3.9 0-3.9 4.5h-10.4c0-3.7 1.4-6.7 4.1-9.1s6.2-3.6 10.4-3.6 7.7 1.1 10.1 3.4 3.6 5.5 3.6 9.7v18.6c0 3.4.5 6.1 1.5 8v.6h-10.3zm-6.1-7.4c1.1 0 2.1-.2 2.9-.7s1.4-1 1.8-1.6v-8.3h-2.5c-1.8 0-3.1.6-4.2 1.7q-1.5 1.65-1.5 4.5c0 3 1.2 4.4 3.5 4.4" />
			<path d="m285.4 372 5-25h10.8l-10.8 39.6h-9.9L269.6 347h10.8z" />
			<path d="M324.4 386.6c-.3-.6-.6-1.6-.9-3.1-1.9 2.5-4.4 3.8-7.5 3.8-3.3 0-6.1-1.1-8.3-3.3s-3.3-5-3.3-8.5c0-4.2 1.3-7.4 4-9.6 2.6-2.3 6.5-3.4 11.4-3.5h3.1v-3.2c0-1.8-.3-3-.9-3.8-.6-.7-1.5-1.1-2.7-1.1q-3.9 0-3.9 4.5H305c0-3.7 1.4-6.7 4.1-9.1s6.2-3.6 10.4-3.6 7.7 1.1 10.1 3.4 3.6 5.5 3.6 9.7v18.6c0 3.4.5 6.1 1.5 8v.6h-10.3zm-6.1-7.4c1.1 0 2.1-.2 2.9-.7s1.4-1 1.8-1.6v-8.3h-2.5c-1.8 0-3.1.6-4.2 1.7q-1.5 1.65-1.5 4.5c0 3 1.2 4.4 3.5 4.4" />
			<path d="M360.4 383c-2.1 2.9-5 4.4-8.6 4.4s-6.4-1.3-8.3-3.8-2.8-6.1-2.8-10.9V347H351v25.9c0 3.9 1.3 5.8 3.8 5.8s4.1-1 5.1-3.1V347h10.4v39.6h-9.7z" />
			<path d="m391 358.8 4.6-11.8h11l-9 19.4 9.4 20.2h-11l-4.9-12.4-4.8 12.4h-11.1l9.4-20.3-9-19.4h11z" />
			<path d="M465.7 368.9q-.45 9.15-5.1 13.8c-3.1 3.1-7.6 4.7-13.3 4.7-6 0-10.7-2-13.9-6s-4.8-9.6-4.8-17v-9c0-7.3 1.7-13 5-16.9q4.95-6 13.8-6c8.85 0 10.2 1.6 13.2 4.9 3 3.2 4.7 7.9 5.1 14h-10.8c-.1-3.8-.7-6.4-1.7-7.8-1.1-1.4-3-2.1-5.8-2.1s-4.9 1-6.1 3-1.8 5.3-1.9 9.9v10.1c0 5.3.6 8.9 1.8 10.9s3.2 3 6.1 3 4.8-.7 5.9-2.1 1.7-3.9 1.8-7.5h10.7z" />
			<path d="M470.6 365.5q0-9 4.2-14.1c2.8-3.4 6.8-5.1 11.8-5.1s9 1.7 11.8 5.1 4.2 8.2 4.2 14.2v2.5q0 9-4.2 14.1c-2.8 3.4-6.7 5.1-11.8 5.1s-9-1.7-11.8-5.1-4.2-8.1-4.2-14.2zm10.4 2.6c0 7.1 1.9 10.6 5.7 10.6 3.5 0 5.4-3 5.6-8.9v-4.4c0-3.6-.5-6.3-1.5-8s-2.4-2.6-4.2-2.6-3.1.9-4.1 2.6-1.5 4.4-1.5 8z" />
			<path d="m518.6 347 .3 3.9c2.3-3.1 5.4-4.7 9.2-4.7 6.8 0 10.3 4.8 10.5 14.3v26h-10.4v-25.3c0-2.2-.3-3.9-1-4.9s-1.8-1.5-3.5-1.5c-1.9 0-3.3 1-4.4 2.9v28.9h-10.4V347z" />
			<path d="M563.6 376c0-.9-.4-1.7-1.3-2.4-.8-.7-2.7-1.8-5.6-3-4.3-1.7-7.2-3.5-8.8-5.4s-2.4-4.2-2.4-6.9c0-3.5 1.3-6.3 3.8-8.6s5.8-3.4 9.9-3.4 7.8 1.1 10.4 3.4c2.6 2.2 3.9 5.3 3.9 9h-10.4c0-3.2-1.3-4.8-4-4.8-1.1 0-2 .3-2.7 1s-1.1 1.6-1.1 2.9c0 .9.4 1.7 1.2 2.3.8.7 2.6 1.6 5.5 2.9 4.2 1.6 7.2 3.3 9 5.2 1.7 1.9 2.6 4.4 2.6 7.5 0 3.5-1.3 6.4-4 8.5s-6.2 3.2-10.5 3.2c-2.9 0-5.5-.6-7.7-1.7s-4-2.7-5.2-4.7c-1.3-2-1.9-4.2-1.9-6.6h9.9c0 1.8.5 3.2 1.3 4.1s2.1 1.4 3.9 1.4q4.2-.15 4.2-3.9" />
			<path d="M592.1 337.3v9.7h5.3v7.8h-5.3v19.7c0 1.6.2 2.6.6 3.2s1.3.9 2.5.9c1 0 1.8-.1 2.5-.3l-.1 8.1c-1.8.7-3.7 1-5.7 1-6.7 0-10.1-3.8-10.1-11.5v-21.1h-4.6V347h4.6v-9.7z" />
			<path d="m622.7 357-3.4-.3c-2.8 0-4.7 1.2-5.7 3.7v26.2h-10.4V347h9.8l.3 4.3c1.6-3.3 3.9-5 6.8-5 1.2 0 2.1.2 2.9.5z" />
			<path d="M647.5 383c-2.1 2.9-5 4.4-8.6 4.4s-6.4-1.3-8.3-3.8-2.8-6.1-2.8-10.9V347h10.4v25.9c0 3.9 1.3 5.8 3.8 5.8s4.1-1 5.1-3.1V347h10.4v39.6h-9.7z" />
			<path d="M679.2 378.8c3 0 4.5-2 4.6-5.9h9.7c0 4.3-1.4 7.8-4 10.5s-6 4-10.1 4q-7.65 0-11.7-4.8c-2.7-3.2-4.1-7.8-4.1-14v-3.1c0-6.2 1.3-11 4-14.2 2.6-3.3 6.6-4.9 11.7-4.9 4.4 0 7.8 1.3 10.3 4s3.8 6.5 3.8 11.5h-9.7c0-2.2-.4-3.9-1.1-5.1s-1.9-1.8-3.5-1.8c-1.8 0-3.1.6-3.9 1.9q-1.2 1.95-1.2 7.5v4c0 3.2.2 5.5.5 6.8s.8 2.2 1.6 2.8 1.8.8 3.1.8" />
			<path d="M711.4 337.3v9.7h5.3v7.8h-5.3v19.7c0 1.6.2 2.6.6 3.2s1.3.9 2.5.9c1 0 1.8-.1 2.5-.3l-.1 8.1c-1.8.7-3.7 1-5.7 1-6.7 0-10.1-3.8-10.1-11.5v-21.1h-4.6V347h4.6v-9.7z" />
			<path d="M722.4 336.8c0-1.6.5-2.9 1.5-4 1-1 2.4-1.5 4.1-1.5s3.1.5 4.1 1.5 1.5 2.3 1.5 4c0 1.6-.5 2.9-1.5 4-1 1-2.4 1.6-4.1 1.6s-3.1-.5-4.1-1.6-1.5-2.5-1.5-4m10.9 49.8h-10.4V347h10.4z" />
			<path d="M740.1 365.5q0-9 4.2-14.1c4.2-5.1 6.8-5.1 11.8-5.1s9 1.7 11.8 5.1 4.2 8.2 4.2 14.2v2.5q0 9-4.2 14.1c-4.2 5.1-6.7 5.1-11.8 5.1s-9-1.7-11.8-5.1-4.2-8.1-4.2-14.2zm10.4 2.6c0 7.1 1.9 10.6 5.7 10.6 3.5 0 5.4-3 5.6-8.9v-4.4c0-3.6-.5-6.3-1.5-8s-2.4-2.6-4.2-2.6-3.1.9-4.1 2.6-1.5 4.4-1.5 8z" />
			<path d="m788.1 347 .3 3.9c2.3-3.1 5.4-4.7 9.2-4.7 6.8 0 10.3 4.8 10.5 14.3v26h-10.4v-25.3c0-2.2-.3-3.9-1-4.9s-1.8-1.5-3.5-1.5c-1.9 0-3.3 1-4.4 2.9v28.9h-10.4V347z" />
			<path d="M342.7 445.1v-34.8h11.4c3.8 0 6.6.8 8.5 2.3 1.9 1.6 2.9 3.9 2.9 6.9 0 1.6-.5 3.1-1.4 4.3-.9 1.3-2.2 2.2-3.8 2.9q2.85.75 4.5 3c1.65 2.25 1.6 3.2 1.6 5.3 0 3.1-1 5.6-3 7.4s-4.9 2.7-8.6 2.7zm4.6-19.9h6.9q3 0 4.8-1.5c1.2-1 1.8-2.4 1.8-4.1 0-1.9-.6-3.3-1.7-4.2s-2.8-1.3-5.1-1.3h-6.8v11.1zm0 3.6v12.5h7.6c2.1 0 3.8-.6 5.1-1.7 1.2-1.1 1.9-2.6 1.9-4.6 0-4.2-2.3-6.3-6.8-6.3h-7.8z" />
			<path d="M388.5 445.1q-.45-.75-.6-2.7c-2.1 2.1-4.5 3.2-7.4 3.2-2.6 0-4.6-.7-6.3-2.2-1.6-1.4-2.5-3.3-2.5-5.5 0-2.7 1-4.8 3.1-6.3 2-1.5 4.9-2.2 8.6-2.2h4.3v-2c0-1.5-.5-2.8-1.4-3.7s-2.3-1.4-4.1-1.4c-1.6 0-2.9.4-4 1.2s-1.6 1.8-1.6 2.9h-4.5c0-1.3.5-2.5 1.4-3.7s2.2-2.2 3.7-2.9c1.6-.7 3.3-1.1 5.2-1.1 3 0 5.3.7 7 2.2s2.6 3.5 2.6 6.2V439q0 3.6.9 5.7v.4zm1.8-30.2v.2h-3.7L383 411l-3.6 4.1h-3.7v-.3l5.9-6.5h2.7zm-9.2 26.9c1.4 0 2.7-.4 3.9-1.1s2.1-1.7 2.7-2.8v-5.3h-3.5q-8.1 0-8.1 4.8c0 1.4.5 2.5 1.4 3.3 1 .7 2.2 1.1 3.6 1.1" />
			<path d="M405.2 413v6.3h4.8v3.4h-4.8v16.1c0 1 .2 1.8.6 2.3s1.2.8 2.2.8q.75 0 2.1-.3v3.6c-1.2.3-2.3.5-3.4.5q-3 0-4.5-1.8c-1.5-1.8-1.5-2.9-1.5-5.1v-16.1H396v-3.4h4.7V413z" />
			<path d="M415.2 412.4c0-.7.2-1.3.7-1.8.4-.5 1.1-.7 2-.7s1.5.2 2 .7c.4.5.7 1.1.7 1.8s-.2 1.3-.7 1.8c-.4.5-1.1.7-2 .7s-1.5-.2-2-.7-.7-1.1-.7-1.8m4.8 32.7h-4.4v-25.9h4.4z" />
			<path d="m431.2 419.2.1 2.9c1.9-2.2 4.5-3.3 7.7-3.3 3.6 0 6.1 1.4 7.4 4.2.9-1.2 2-2.2 3.4-3s3-1.1 4.9-1.1q8.55 0 8.7 9v17.3H459v-17.1c0-1.9-.4-3.2-1.3-4.2-.8-.9-2.3-1.4-4.3-1.4-1.6 0-3 .5-4.1 1.5s-1.7 2.3-1.9 4v17.2h-4.5v-17c0-3.8-1.8-5.6-5.5-5.6-2.9 0-4.9 1.2-6 3.7v18.9H427v-25.9h4.2z" />
			<path d="M480.7 445.6c-3.5 0-6.4-1.2-8.6-3.5s-3.3-5.4-3.3-9.2v-.8q0-3.9 1.5-6.9c1.5-3 2.4-3.6 4.1-4.7 1.8-1.1 3.7-1.7 5.7-1.7q5.1 0 7.8 3.3c1.9 2.2 2.8 5.4 2.8 9.5v1.8h-17.5c.1 2.6.8 4.6 2.2 6.2q2.1 2.4 5.4 2.4c1.6 0 2.9-.3 4-1 1.1-.6 2-1.5 2.8-2.5l2.7 2.1c-2 3.3-5.2 5-9.6 5m-.5-23.2c-1.8 0-3.3.6-4.5 2-1.2 1.3-2 3.1-2.2 5.5h13v-.3c-.1-2.2-.7-4-1.8-5.2-1.2-1.4-2.7-2-4.5-2" />
			<path d="m500.1 419.2.1 3.3c2-2.5 4.6-3.7 7.8-3.7 5.5 0 8.2 3.1 8.3 9.3v17.1h-4.4v-17.1c0-1.9-.4-3.2-1.3-4.1-.8-.9-2.1-1.3-3.9-1.3-1.4 0-2.7.4-3.8 1.1-1.1.8-1.9 1.8-2.5 3v18.4H496v-25.9h4.1z" />
			<path d="M529 413v6.3h4.8v3.4H529v16.1c0 1 .2 1.8.6 2.3s1.2.8 2.2.8q.75 0 2.1-.3v3.6c-1.2.3-2.3.5-3.4.5q-3 0-4.5-1.8c-1.5-1.8-1.5-2.9-1.5-5.1v-16.1h-4.7v-3.4h4.7V413z" />
			<path d="M550.2 435.8c0-1.7.5-3.2 1.4-4.6s2.7-3 5.3-4.9c-1.5-1.9-2.6-3.4-3.1-4.5s-.8-2.3-.8-3.4c0-2.6.8-4.7 2.3-6.2 1.6-1.5 3.7-2.2 6.4-2.2 2.4 0 4.4.7 5.9 2.1 1.6 1.4 2.3 3.2 2.3 5.3 0 1.4-.4 2.7-1.1 3.9s-2 2.4-3.7 3.7l-2.6 1.9 7.8 9.3c1.1-2.1 1.6-4.4 1.6-6.9h4c0 4.1-1 7.4-2.9 10.1l5 6h-5.3l-2.3-2.8q-1.8 1.65-4.2 2.4c-1.6.5-3.2.8-4.8.8-3.4 0-6.1-.9-8.2-2.7-2-2-3-4.4-3-7.3m11.3 6.2c2.3 0 4.5-.9 6.4-2.7l-8.5-10.2-.8.6c-2.7 2-4 4-4 6.1q0 2.85 1.8 4.5c1.3 1.1 2.9 1.7 5.1 1.7m-4-23.9c0 1.5.9 3.4 2.8 5.7l2.8-2c1.1-.8 1.8-1.5 2.2-2.2s.6-1.5.6-2.5q0-1.65-1.2-2.7c-1.2-1.05-1.8-1.1-3-1.1-1.3 0-2.3.4-3.1 1.3-.7 1.1-1.1 2.2-1.1 3.5" />
			<path d="M620.1 440.6c-1.2 1.7-2.8 3-4.9 3.8s-4.6 1.3-7.4 1.3-5.4-.7-7.6-2q-3.3-1.95-5.1-5.7c-1.2-2.5-1.8-5.3-1.9-8.5v-3c0-5.2 1.2-9.3 3.7-12.2 2.4-2.9 5.9-4.3 10.3-4.3 3.6 0 6.6.9 8.8 2.8s3.6 4.5 4.1 7.9h-4.6c-.9-4.6-3.6-6.9-8.2-6.9-3.1 0-5.4 1.1-7 3.2-1.6 2.2-2.4 5.3-2.4 9.4v2.8q0 5.85 2.7 9.3c2.7 3.45 4.2 3.5 7.2 3.5q2.55 0 4.5-.6c1.95-.6 2.4-1 3.2-1.9v-7.8h-8.1v-3.8H620v12.7z" />
			<path d="M637.8 445.6c-3.5 0-6.4-1.2-8.6-3.5s-3.3-5.4-3.3-9.2v-.8q0-3.9 1.5-6.9c1.5-3 2.4-3.6 4.1-4.7 1.8-1.1 3.7-1.7 5.7-1.7q5.1 0 7.8 3.3c1.9 2.2 2.8 5.4 2.8 9.5v1.8h-17.5c.1 2.6.8 4.6 2.2 6.2s3.2 2.4 5.4 2.4c1.6 0 2.9-.3 4-1 1.1-.6 2-1.5 2.8-2.5l2.7 2.1c-2 3.3-5.2 5-9.6 5m-.5-23.2c-1.8 0-3.3.6-4.5 2-1.2 1.3-2 3.1-2.2 5.5h13v-.3c-.1-2.2-.7-4-1.8-5.2-1.2-1.4-2.7-2-4.5-2m2.1-14h5.4l-6.4 7h-3.6z" />
			<path d="m657.2 419.2.1 3.3c2-2.5 4.6-3.7 7.8-3.7 5.5 0 8.2 3.1 8.3 9.3v17.1H669v-17.1c0-1.9-.4-3.2-1.3-4.1-.8-.9-2.1-1.3-3.9-1.3-1.4 0-2.7.4-3.8 1.1-1.1.8-1.9 1.8-2.5 3v18.4h-4.4v-25.9h4.1z" />
			<path d="M680.1 412.4c0-.7.2-1.3.7-1.8.4-.5 1.1-.7 2-.7s1.5.2 2 .7c.4.5.7 1.1.7 1.8s-.2 1.3-.7 1.8c-.4.5-1.1.7-2 .7s-1.5-.2-2-.7-.7-1.1-.7-1.8m4.8 32.7h-4.4v-25.9h4.4z" />
			<path d="M702.7 445.6c-3.5 0-6.4-1.2-8.6-3.5s-3.3-5.4-3.3-9.2v-.8q0-3.9 1.5-6.9c1.5-3 2.4-3.6 4.1-4.7 1.8-1.1 3.7-1.7 5.7-1.7q5.1 0 7.8 3.3c1.9 2.2 2.8 5.4 2.8 9.5v1.8h-17.5c.1 2.6.8 4.6 2.2 6.2s3.2 2.4 5.4 2.4c1.6 0 2.9-.3 4-1 1.1-.6 2-1.5 2.8-2.5l2.7 2.1c-2 3.3-5.2 5-9.6 5m-.5-23.2c-1.8 0-3.3.6-4.5 2-1.2 1.3-2 3.1-2.2 5.5h13v-.3c-.1-2.2-.7-4-1.8-5.2-1.2-1.4-2.7-2-4.5-2" />
			<path d="M740.5 442c1.6 0 3-.5 4.1-1.4 1.2-1 1.8-2.2 2-3.6h4.2q-.15 2.25-1.5 4.2c-.9 1.3-2.2 2.4-3.8 3.2s-3.2 1.2-5 1.2c-3.5 0-6.3-1.2-8.4-3.5-2.1-2.4-3.1-5.6-3.1-9.7v-.7c0-2.5.5-4.8 1.4-6.7.9-2 2.3-3.5 4-4.6s3.8-1.6 6.1-1.6c2.9 0 5.3.9 7.2 2.6s2.9 4 3.1 6.8h-4.2c-.1-1.7-.8-3.1-1.9-4.1-1.1-1.1-2.5-1.6-4.2-1.6-2.2 0-4 .8-5.2 2.4s-1.9 4-1.9 7v.8q0 4.5 1.8 6.9c1.2 1.6 3 2.4 5.3 2.4" />
			<path d="M755.7 412.4c0-.7.2-1.3.7-1.8.4-.5 1.1-.7 2-.7s1.5.2 2 .7c.4.5.7 1.1.7 1.8s-.2 1.3-.7 1.8c-.4.5-1.1.7-2 .7s-1.5-.2-2-.7c-.4-.5-.7-1.1-.7-1.8m4.8 32.7h-4.4v-25.9h4.4z" />
			<path d="m776.2 439.1 6.4-19.9h4.5l-9.3 25.9h-3.4l-9.4-25.9h4.5z" />
			<path d="M791.4 412.4c0-.7.2-1.3.7-1.8.4-.5 1.1-.7 2-.7s1.5.2 2 .7c.4.5.7 1.1.7 1.8s-.2 1.3-.7 1.8c-.4.5-1.1.7-2 .7s-1.5-.2-2-.7-.7-1.1-.7-1.8m4.8 32.7h-4.4v-25.9h4.4z" />
			<path d="M808 445.1h-4.4v-36.8h4.4z" />
			<path d="M62.8 288.4v211h-8v-211z" />
			<path d="M47.9 505.6c0-6 4.9-10.9 10.9-10.9s11 4.9 11 10.9" />
			<path d="M84.8 514.5c0 5.523-11.372 10-25.4 10s-25.4-4.477-25.4-10 11.372-10 25.4-10 25.4 4.477 25.4 10" />
			<path d="M59.3 514.6h25.5L72 552l-12.7 37.4L46.5 552l-12.7-37.4z" />
		</g>
	</g>
</svg>