<svg	xmlns="http://www.w3.org/2000/svg"
			viewBox="0 0 398.386 82.294"
			width="100%" height="100%"
			preserveAspectRatio="xMidYMid meet"
			aria-label="Logo Parcs &amp; Jardins Jean ARM SA">
	<g fill="#004431">
		<path d="M51.515,6.497c-0.015,0-2.722,0-2.722,0h-0.441v0.439v18.89h0.881V16.51c3.232-0.51,5.453-1.73,5.869-5.693c0.133-1.251-0.136-2.271-0.797-3.031C53.248,6.572,51.584,6.499,51.515,6.497z M54.225,10.723c-0.314,3.01-1.643,4.328-4.992,4.89V7.378H51.5c-0.004,0,1.344,0.064,2.145,0.991C54.135,8.938,54.332,9.73,54.225,10.723z" />
		<path d="M71.855,25.826L63.787,6.348l-0.374-0.902l-0.429,0.878l-9.506,19.502h0.98l6.086-12.485h5.184L70.9,25.826H71.855z M60.975,12.458l2.373-4.869l2.017,4.869H60.975z" />
		<path d="M81.22,9.59c-0.062-0.78-0.397-1.422-0.997-1.914c-1.735-1.421-5.148-1.026-5.293-1.01l-0.388,0.05v0.388v18.722h0.881V7.511c0.892-0.058,3.103-0.086,4.243,0.848c0.412,0.336,0.632,0.761,0.676,1.301c0.239,3.053-1.127,5.151-3.955,6.068l-0.537,0.174l0.301,0.479l5.93,9.429l0.746-0.471l-5.639-8.963C80.049,15.241,81.478,12.852,81.22,9.59z" />
		<path d="M99.158,23.876c-6.356,2.543-10.857,0.639-10.902,0.618c-2.925-1.33-4.383-3.695-4.586-7.445c-0.235-4.367,3.077-7.096,3.111-7.124l0.014-0.011c0-0.003,0.016-0.012,0.016-0.012C89.966,6.864,98.1,7.433,98.182,7.44l0.064-0.877c-0.348-0.028-8.568-0.604-12.021,2.68c-0.187,0.149-3.694,3.05-3.434,7.854c0.219,4.058,1.889,6.742,5.104,8.202c0.197,0.089,4.721,2.019,11.264-0.478V23.876z" />
		<path d="M100.418,25.699c0.229-0.083,5.604-2.092,5.24-5.996c-0.187-2.001-1.609-3.188-1.671-3.237c-0.968-0.697-3.382-2.832-3.199-4.479c0.194-1.745,0.687-2.506,4.017-4.894l-0.514-0.717c-3.365,2.418-4.143,3.396-4.378,5.513c-0.277,2.497,3.382,5.163,3.538,5.276c-0.012-0.007,1.178,0.996,1.329,2.621c0.302,3.226-4.614,5.067-4.667,5.086L100.418,25.699z" />
		<polygon points="0.881,51.576 0.881,43.075 5.398,43.075 5.398,42.32 0.881,42.32 0.881,34.323 5.393,34.323 5.393,33.443 0.441,33.443 0,33.443 0,33.883 0,52.016 0,52.457 0.441,52.457 5.477,52.457 5.477,51.576" />
		<polygon points="16.055,33.467 6.799,33.467 6.799,34.35 11.08,34.35 11.08,52.457 11.962,52.457 11.962,34.35 16.055,34.35" />
		<path d="M27.197,33.506h-0.881v14.479v0.027l0.002,0.022c0.002,0.015,0.146,1.484-0.879,2.564c-0.857,0.905-2.294,1.31-4.266,1.202l-0.047,0.88c2.248,0.125,3.918-0.376,4.963-1.484c1.233-1.312,1.13-2.991,1.107-3.231V33.506z" />
		<path d="M46.609,52.457l-8.068-19.475l-0.374-0.905l-0.43,0.877l-9.505,19.503h0.98l6.086-12.486h5.185l5.171,12.486H46.609z M35.729,39.09l2.373-4.868l2.016,4.868H35.729z" />
		<path d="M55.722,36.217c-0.062-0.776-0.396-1.418-0.995-1.909c-1.738-1.423-5.15-1.025-5.295-1.007l-0.388,0.045v0.391v18.72h0.881V34.141c0.893-0.057,3.103-0.086,4.244,0.852c0.411,0.334,0.632,0.76,0.673,1.298c0.242,3.055-1.124,5.151-3.951,6.068l-0.539,0.173l0.301,0.479l5.93,9.428l0.746-0.471l-5.637-8.965C54.549,41.871,55.979,39.483,55.722,36.217z" />
		<path d="M73.271,35.437c-2.768-2.379-7.445-2.067-7.812-2.041h-5.523h-0.44v0.443v18.177v0.398l0.398,0.04c7.36,0.703,11.142-2.931,11.292-3.078c2.772-2.626,4.283-6.329,4.04-9.902C75.111,37.813,74.455,36.454,73.271,35.437zM70.579,48.735c-0.041,0.041-3.535,3.368-10.202,2.871V34.28h5.099h0.02h0.019c0.044-0.006,4.646-0.357,7.185,1.826c0.997,0.859,1.552,2.013,1.647,3.428C74.572,42.849,73.162,46.29,70.579,48.735z" />
		<rect x="77.312" y="33.506" width="0.882" height="18.95" />
		<polygon points="96.373,50.1 83.381,34.545 82.601,33.615 82.601,34.828 82.601,52.457 83.482,52.457 83.482,36.042 96.476,51.598 97.254,52.531 97.254,51.316 97.254,33.57 96.373,33.57" />
		<path d="M100.166,52.646c0.229-0.084,5.604-2.093,5.24-5.995c-0.186-2.004-1.611-3.19-1.67-3.238c-0.969-0.698-3.383-2.832-3.199-4.48c0.193-1.745,0.687-2.503,4.016-4.896l-0.515-0.715c-3.364,2.414-4.142,3.396-4.378,5.516c-0.275,2.491,3.383,5.159,3.538,5.275c-0.011-0.011,1.179,0.995,1.33,2.619c0.3,3.226-4.615,5.068-4.665,5.087L100.166,52.646z" />
		<path fill="#A4C400" d="M160.97,84.59c-3.559-8.553-6.588-17.316-8.215-26.652l0.211-0.262c5.924-1.111,11.424-3.332,16.395-6.773c7.668-4.758,12.955-12.693,13.592-21.467c0.527-5.607-0.9-10.578-3.809-14.863c-3.121-4.865-8.25-8.088-13.17-10.262c-3.754-1.479-7.561-2.695-11.58-3.436c-8.725-1.637-18.668-1.164-26.125,3.012c-7.932,4.445-11.527,13.488-12.107,22.316c-0.584,6.561,0.527,12.855,3.064,18.355c4.654,8.83,13.908,13.488,23.32,14.543l0.318,0.266c1.164,8.145,0.951,16.871,0.316,25.115l-0.064,0.107h-37.219v60.59l0.064-0.016c2.936,0.48,6.012,0.732,9.088,0.934c13.75,0.74,26.918-1.906,39.184-5.924c8.043-2.486,16.344-4.283,25.279-4.713c3.488-0.256,7.193-0.203,10.736-0.051l5.5,0.693c16.127,2.113,30.514,8.674,43.895,17.449l0.318,0.236V84.59h-78.998H160.97z" />
		<path d="M200.704,14.753h-2.443v19.589l0.01,0.069c0,0.003,0.132,1.591-0.938,2.72c-0.95,1.002-2.598,1.443-4.898,1.32l-0.657-0.035l-0.138,2.438l0.662,0.034c3.06,0.173,5.35-0.537,6.817-2.09c1.413-1.499,1.602-3.31,1.602-4.178c0-0.181-0.008-0.308-0.017-0.396C200.704,34.182,200.704,14.753,200.704,14.753zM257.483,34.566c-2.021-2.418-17.476-20.922-17.476-20.922V40.05h2.444c0,0,0-16.626,0-19.668c2.019,2.42,17.476,20.918,17.476,20.918V14.753h-2.444C257.483,14.753,257.483,31.525,257.483,34.566z M226.472,13.229l-0.543,1.119L213.402,40.05h2.718c0,0,7.378-15.141,7.723-15.848h5.722c0.32,0.774,6.565,15.848,6.565,15.848h2.644L227.117,11.91L226.472,13.229z M225.036,21.761c0.498-1.021,1.262-2.59,1.902-3.902c0.553,1.337,1.207,2.913,1.614,3.902H225.036zM306.574,19.717c0-0.322-0.013-0.654-0.036-0.989c-0.095-1.177-0.601-2.146-1.505-2.888c-2.386-1.948-6.732-1.487-7.22-1.422l0,0l-1.075,0.128V40.05h2.445c0,0,0-6.249,0-11.819c0.555,0.877,7.575,12.044,7.575,12.044l2.07-1.3c0,0-6.404-10.182-7.112-11.306C304.865,26.14,306.574,23.374,306.574,19.717z M299.184,26.057v-9.272c1.164-0.021,3.229,0.069,4.3,0.949c0.381,0.309,0.577,0.688,0.615,1.188c0.021,0.279,0.034,0.549,0.034,0.816c0,3.127-1.543,5.211-4.593,6.2C299.54,25.939,299.361,25.998,299.184,26.057z M282.744,13.229l-0.545,1.119L269.672,40.05h2.719c0,0,7.378-15.141,7.725-15.848h5.718c0.325,0.774,6.564,15.848,6.564,15.848h2.645L283.388,11.91L282.744,13.229z M281.306,21.761c0.498-1.021,1.262-2.59,1.903-3.902c0.552,1.337,1.206,2.913,1.613,3.902H281.306z M335.461,17.006c0,0-9.474,17.306-10.521,19.216c-1.041-1.916-12.469-22.91-12.469-22.91l-0.194,2.182l-2.203,24.557h2.454c0,0,1.345-15.017,1.655-18.479c1.705,3.128,10.751,19.754,10.751,19.754s8.987-16.415,10.711-19.563c0.284,3.486,1.482,18.289,1.482,18.289h2.453l-2.159-26.62L335.461,17.006z M362.245,32.075c-0.262-2.811-2.275-4.49-2.36-4.562l-0.014-0.013l-0.017-0.013c-1.675-1.207-3.955-3.582-3.791-5.071c0.22-1.979,0.724-2.802,4.828-5.747l0.537-0.387l-1.426-1.985l-0.538,0.386c-4.418,3.172-5.505,4.566-5.827,7.465l0,0c-0.019,0.138-0.025,0.278-0.025,0.418c0,3.287,4.131,6.407,4.75,6.858c0.168,0.152,1.298,1.233,1.451,2.878c0.01,0.098,0.013,0.196,0.013,0.297c0,3.393-5.447,5.45-5.503,5.473l-0.62,0.23l0.227,0.618l0.61,1.673l0.623-0.229C355.473,40.251,362.754,37.528,362.245,32.075z M363.516,36.722l-1.75,1.751l2.219,2.219l2.219-2.219l-2.219-2.214L363.516,36.722z M396.168,36.259l-0.47,0.463l-1.748,1.751l2.218,2.219l2.218-2.219L396.168,36.259z M380.367,13.229l-0.545,1.119L367.295,40.05h2.717c0,0,7.379-15.141,7.727-15.848h5.719c0.321,0.774,6.565,15.848,6.565,15.848h2.642L381.01,11.91L380.367,13.229z M378.929,21.761c0.495-1.021,1.261-2.59,1.902-3.902c0.552,1.337,1.206,2.913,1.614,3.902H378.929zM206.261,28.167c1.038,0,5.732,0,5.732,0v-2.283c0,0-4.694,0-5.732,0v-8.82c1.035,0,5.725,0,5.725,0v-2.445h-8.167v25.453h8.272v-2.439c0,0-4.789,0-5.83,0V28.167z" />
	</g>
</svg>