<svg	xmlns="http://www.w3.org/2000/svg"
			xmlns:xlink="http://www.w3.org/1999/xlink"
			viewBox="0 0 500 180"
			width="100%" height="100%"
			preserveAspectRatio="xMidYMid meet"
			style="fill-rule:evenodd;clip-rule:evenodd;stroke-miterlimit:2;"
			aria-label="Logo Delessert Constructions SA">
	<rect x="4.854" y="4.837" width="490.26" height="169.688" style="fill:#fff;"/>
	<g>
		<rect x="11.717" y="11.771" width="476.208" height="155.494" style="fill:url(#_Linear1);"/>
		<path d="M249.546,12.208l-237.48,155.056l475.859,0l-238.379,-155.056Z" style="fill:url(#_Linear2);"/>
		<path d="M52.089,145.425c9.729,-0 14.343,-2.708 14.343,-8.415c0,-5.705 -5.033,-8.56 -14.929,-8.56l-4.696,0l-0,16.975l5.282,-0Zm-26.439,-24.676l27.761,-0c10.316,-0 17.949,1.614 23.821,4.991c5.284,3.044 8.138,7.133 8.138,11.648c-0,6.136 -5.369,11.605 -13.842,14.076c-4.026,1.188 -8.637,1.715 -14.762,1.715l-31.116,-0l-0,-32.43Z" style="fill:#fff;fill-rule:nonzero;"/>
		<path d="M136.284,120.749l20.045,-0l0,24.296l21.919,-0l-0,8.134l-41.964,-0l0,-32.43Z" style="fill:#fff;fill-rule:nonzero;"/>
		<path d="M181.442,120.749l42.943,-0l0,6.845l-23.148,0l-0,5.802l21.134,0l0,6.75l-21.134,0l-0,6.04l23.401,-0l-0,6.993l-43.196,-0l-0,-32.43Z" style="fill:#fff;fill-rule:nonzero;"/>
		<path d="M228.53,142.572c5.45,2.093 10.819,3.234 15.431,3.234c3.608,-0 5.788,-0.808 5.788,-2.236c0,-1.093 -1.091,-1.712 -6.124,-3.184c-5.535,-1.57 -7.379,-2.237 -9.729,-3.472c-3.605,-1.901 -5.366,-4.137 -5.366,-6.847c-0,-5.801 8.301,-9.699 20.464,-9.699c6.542,-0 12.161,1.047 17.779,3.425l0,8.558c-5.45,-2.806 -10.063,-4.185 -14.173,-4.185c-3.606,-0 -5.787,0.855 -5.787,2.281c0,1.236 1.509,1.95 8.555,3.994c5.702,1.666 7.296,2.283 9.312,3.472c2.935,1.713 4.36,3.709 4.36,6.134c0,2.804 -2.095,5.278 -5.955,7.038c-4.023,1.852 -8.22,2.518 -15.6,2.518c-6.795,-0 -13.338,-0.761 -18.955,-2.233l-0,-8.798Z" style="fill:#fff;fill-rule:nonzero;"/>
		<path d="M272.28,142.572c5.453,2.093 10.82,3.234 15.434,3.234c3.604,-0 5.787,-0.808 5.787,-2.236c0,-1.093 -1.091,-1.712 -6.122,-3.184c-5.535,-1.57 -7.381,-2.237 -9.731,-3.472c-3.607,-1.901 -5.368,-4.137 -5.368,-6.847c-0,-5.801 8.304,-9.699 20.465,-9.699c6.544,-0 12.162,1.047 17.783,3.425l-0,8.558c-5.451,-2.806 -10.064,-4.185 -14.176,-4.185c-3.607,-0 -5.789,0.855 -5.789,2.281c-0,1.236 1.511,1.95 8.559,3.994c5.703,1.666 7.295,2.283 9.307,3.472c2.936,1.713 4.363,3.709 4.363,6.134c0,2.804 -2.096,5.278 -5.953,7.038c-4.028,1.852 -8.223,2.518 -15.602,2.518c-6.794,-0 -13.338,-0.761 -18.957,-2.233l-0,-8.798Z" style="fill:#fff;fill-rule:nonzero;"/>
		<path d="M316.201,120.749l42.943,-0l0,6.845l-23.148,0l-0,5.802l21.135,0l-0,6.75l-21.135,0l-0,6.04l23.399,-0l0,6.993l-43.194,-0l0,-32.43Z" style="fill:#fff;fill-rule:nonzero;"/>
		<path d="M386.989,134.632c7.715,-0 11.237,-1.378 11.237,-4.469c0,-2.901 -3.354,-4.184 -11.071,-4.184l-3.55,0l-0,8.653l3.384,-0Zm-23.178,-13.883l24.94,-0c5.281,-0 9.475,0.093 12.492,0.238c2.773,0.188 5.453,0.662 7.886,1.376c5.032,1.524 8.136,4.424 8.136,7.608c0,3.519 -3.104,6.04 -9.141,7.562c2.766,0.809 4.107,1.519 5.871,3.233c0.921,0.856 2.347,2.518 3.439,3.851l6.792,8.562l-19.712,-0l-4.078,-5.25c-1.953,-2.307 -3.216,-4.12 -5.146,-5.784c-0.755,-0.714 -1.676,-1.284 -2.599,-1.665c-1.341,-0.617 -2.851,-0.854 -5.787,-0.854l-3.157,0l0,13.553l-19.936,-0l-0,-32.43Z" style="fill:#fff;fill-rule:nonzero;"/>
		<path d="M437.236,128.878l-16.943,0l0,-8.129l54.378,-0l-0,8.129l-17.39,0l-0,24.301l-20.045,-0l-0,-24.301Z" style="fill:#fff;fill-rule:nonzero;"/>
		<path d="M88.945,120.749l42.941,-0l0,6.845l-23.146,0l-0,5.802l21.135,0l-0,6.75l-21.135,0l-0,6.04l23.399,-0l-0,6.993l-43.194,-0l-0,-32.43Z" style="fill:#fff;fill-rule:nonzero;"/>
		<rect x="210.962" y="38.863" width="67.875" height="57.917" style="fill:#adc4e6;fill-rule:nonzero;"/>
		<path d="M239.49,82.848l-8.601,-0l-0,-28.98l7.373,-0c19.085,-0 28.76,4.921 28.76,14.633c0,6.159 -2.851,14.347 -27.532,14.347Zm-1.228,-33.867l-12.26,-0l-0,38.754l13.488,-0c8.019,-0 32.42,-0 32.42,-19.234c-0,-12.953 -11.32,-19.52 -33.648,-19.52Z" style="fill:url(#_Linear3);"/>
		<path d="M226.003,48.967l-0,38.797l4.884,-4.902l-0,-29.012l-4.884,-4.883Z" style="fill:#002c62;fill-rule:nonzero;"/>
		<path d="M237.243,89.976c24.216,0 35.7,-6.969 35.7,-21.647c-0,-14.681 -12.525,-22.019 -37.162,-22.019l-11.692,0l0,43.666l13.154,0Zm-62.82,-63.482l68.875,0c25.678,0 44.68,4.162 59.293,12.842c13.153,7.831 20.25,18.348 20.25,29.968c-0,15.78 -13.359,29.85 -34.449,36.211c-10.019,3.055 -21.501,4.404 -36.741,4.404l-77.228,0l0,-83.425Z" style="fill:url(#_Linear4);"/>
		<path d="M174.402,26.421l0,83.473l4.909,-4.833l0.007,0l-0,-73.781l-4.916,-4.859Z" style="fill:url(#_Linear5);"/>
		<path d="M238.309,87.448c22.655,-0 33.4,-6.168 33.4,-19.154c-0,-12.99 -11.718,-19.482 -34.769,-19.482l-10.937,-0l-0,38.636l12.306,-0Zm-58.991,-56.168l64.654,-0c24.028,-0 41.804,3.68 55.474,11.361c12.306,6.929 18.946,16.236 18.946,26.517c0,13.962 -12.498,26.409 -32.228,32.035c-9.376,2.706 -20.119,3.9 -34.376,3.9l-72.47,-0l-0,-73.813Z" style="fill:#fff;fill-rule:nonzero;"/>
	</g>
	<defs>
		<linearGradient id="_Linear1" x1="0" y1="0" x2="1" y2="0" gradientUnits="userSpaceOnUse" gradientTransform="matrix(9.61551e-16,157.033,-157.033,9.61551e-16,249.821,11.0465)">
			<stop offset="0" style="stop-color:#a7bfe4;stop-opacity:1"/>
			<stop offset="0.1" style="stop-color:#508dcb;stop-opacity:1"/>
			<stop offset="0.6" style="stop-color:#0071bb;stop-opacity:1"/>
			<stop offset="0.8" style="stop-color:#0060a3;stop-opacity:1"/>
			<stop offset="1" style="stop-color:#0060a3;stop-opacity:1"/>
		</linearGradient>
		<linearGradient id="_Linear2" x1="0" y1="0" x2="1" y2="0" gradientUnits="userSpaceOnUse" gradientTransform="matrix(9.64402e-16,157.499,-157.499,9.64402e-16,249.996,10.6525)">
			<stop offset="0" style="stop-color:#adc4e6;stop-opacity:1"/>
			<stop offset="0.5" style="stop-color:#aac2e5;stop-opacity:1"/>
			<stop offset="0.7" style="stop-color:#78a1d2;stop-opacity:1"/>
			<stop offset="1" style="stop-color:#0060a3;stop-opacity:1"/>
		</linearGradient>
		<linearGradient id="_Linear3" x1="0" y1="0" x2="1" y2="0" gradientUnits="userSpaceOnUse" gradientTransform="matrix(2.38276e-16,-38.9135,38.9135,2.38276e-16,248.956,87.6106)">
			<stop offset="0" style="stop-color:#2581c4;stop-opacity:1"/>
			<stop offset="0.1" style="stop-color:#508dcb;stop-opacity:1"/>
			<stop offset="0.2" style="stop-color:#b0c6e7;stop-opacity:1"/>
			<stop offset="0.3" style="stop-color:#e3eaf6;stop-opacity:1"/>
			<stop offset="0.4" style="stop-color:#edf1f9;stop-opacity:1"/>
			<stop offset="0.5" style="stop-color:#b2c7e7;stop-opacity:1"/>
			<stop offset="0.6" style="stop-color:#709acc;stop-opacity:1"/>
			<stop offset="0.8" style="stop-color:#02629a;stop-opacity:1"/>
			<stop offset="0.9" style="stop-color:#004f87;stop-opacity:1"/>
			<stop offset="1" style="stop-color:#004f87;stop-opacity:1"/>
		</linearGradient>
		<linearGradient id="_Linear4" x1="0" y1="0" x2="1" y2="0" gradientUnits="userSpaceOnUse" gradientTransform="matrix(17.6471,85.0684,-85.0684,17.6471,232.582,10.7987)">
			<stop offset="0" style="stop-color:#6798d1;stop-opacity:1"/>
			<stop offset="0.4" style="stop-color:#a9b8d5;stop-opacity:1"/>
			<stop offset="0.5" style="stop-color:#c8d0e4;stop-opacity:1"/>
			<stop offset="0.6" style="stop-color:#8b9abe;stop-opacity:1"/>
			<stop offset="0.8" style="stop-color:#314f81;stop-opacity:1"/>
			<stop offset="0.9" style="stop-color:#003469;stop-opacity:1"/>
			<stop offset="1" style="stop-color:#002b61;stop-opacity:1"/>
		</linearGradient>
		<linearGradient id="_Linear5" x1="0" y1="0" x2="1" y2="0" gradientUnits="userSpaceOnUse" gradientTransform="matrix(4.87613e-16,79.633,-79.633,4.87613e-16,176.86,28.491)">
			<stop offset="0" style="stop-color:#9eb9e1;stop-opacity:1"/>
			<stop offset="0.2" style="stop-color:#057ac0;stop-opacity:1"/>
			<stop offset="0.3" style="stop-color:#0075bd;stop-opacity:1"/>
			<stop offset="0.7" style="stop-color:#b5c9e8;stop-opacity:1"/>
			<stop offset="0.8" style="stop-color:#d1dcf1;stop-opacity:1"/>
			<stop offset="1" style="stop-color:#d1dcf1;stop-opacity:1"/>
		</linearGradient>
	</defs>
</svg>