<svg	xmlns="http://www.w3.org/2000/svg"
			viewBox="0 0 509 249"
			width="100%" height="100%"
			preserveAspectRatio="xMidYMid meet"
			aria-label="Logo Taxa SA">
	<g fill="#e30613">
		<path d="m103.715 43.031c.046-4.056 3.42-7.327 7.483-7.349h26.378v-17.738h-23.192c-4.325 0-9.138 1.864-10.669 3.982v-21.869h-17.773v86.666h17.773z" />
		<path d="m209.522 35.646h-39.797c-4.047.022-7.327 3.282-7.376 7.32v18.537c.049 4.039 3.329 7.296 7.376 7.32h27.357v17.667h-27.357c-13.818-.07-25.006-11.196-25.171-24.987v-18.537c.165-13.79 11.353-24.922 25.171-24.988h57.59v68.512h-17.793z" />
		<path d="m333.066 86.723h-21.724l-24.835-27.071-24.83 27.071h-21.73l31.625-34.554-31.625-34.335h21.73l24.83 27.071 24.835-27.071h21.724l-31.618 34.335z" />
		<path d="m406.447 35.47h-39.936c-4.062.022-7.354 3.293-7.4 7.345v18.601c.046 4.053 3.338 7.322 7.4 7.346h27.452v17.728h-27.452c-13.867-.07-25.092-11.235-25.256-25.074v-18.601c.164-13.838 11.389-25.008 25.256-25.075h57.794v68.75h-17.858z" />
		<path d="m121.519 132.268c.237 0 .475-.032.718-.097l14.2-3.793c1.161-.327 1.958-1.271 1.964-2.317.005-.163-.016-.327-.06-.486-.274-1.02-1.235-1.616-2.271-1.607-.252 0-.513.034-.766.102l-14.222 3.812c-1.094.292-1.936 1.196-1.946 2.293-.006.171.02.345.075.519.276.996 1.273 1.567 2.308 1.574z" />
		<path d="m110.869 145.46c.005-3.386 2.788-6.161 6.197-6.159l21.038.021c3.415.007 6.16 2.778 6.16 6.182-.011 2.525-.017 4.484-.017 5.364-4.843-.015-28.68-.043-33.378-.046 0-.534.005-1.451.005-2.537 0-.872 0-1.842-.005-2.825zm27.235-11.151-21.006-.018h-.055c-6.185 0-11.178 4.984-11.185 11.169l-.017 13.98c-.005.033-.005.054-.005.06v.004c.011 6.192 4.984 11.183 11.198 11.199l28.385.021c1.353 0 2.55-1.09 2.561-2.538-.011-1.4-1.203-2.474-2.552-2.476l-28.394-.037c-3.404-.009-6.171-2.771-6.171-6.179v-3.655c1.829.003 9.492.013 35.871.036h.269l.006-.013c1.29-.124 2.272-1.204 2.272-2.519v-7.915c-.038-6.165-5.061-11.11-11.177-11.119z" />
		<path d="m186.138 134.314-26.422-.032c-1.44.071-2.562 1.165-2.562 2.54l-.021 31.264c-.005.011-.005.026-.005.034v.061c.009 1.41 1.137 2.5 2.55 2.504 1.36-.004 2.535-1.094 2.535-2.534.01-12.089.027-26.006.032-28.784h.038c1.719 0 7.237.006 23.843.027 3.474 0 6.235 2.765 6.246 6.165v.021l-.017 22.549c-.005.035-.005.053-.005.057l.005.006c0 1.411 1.085 2.537 2.455 2.54h.012c1.412 0 2.533-1.129 2.533-2.55l.022-22.602c-.011-6.201-4.973-11.255-11.239-11.266z" />
		<path d="m210.682 145.46c.006-3.386 2.79-6.159 6.196-6.159l21.044.021c3.417.007 6.153 2.778 6.153 6.182-.013 2.525-.013 4.484-.013 5.364-4.839-.015-28.682-.043-33.38-.046zm27.24-11.151-21.035-.018c-6.186 0-11.211 4.989-11.215 11.169l-.016 13.997c-.005.021-.005.037-.005.043l.005.004c.006 6.192 4.982 11.183 11.191 11.199l28.378.021c1.355 0 2.554-1.09 2.564-2.538-.01-1.404-1.198-2.472-2.551-2.474l-28.391-.039c-3.399-.009-6.175-2.776-6.175-6.179.004-1.623.004-2.963.004-3.652 1.83 0 9.488.007 35.873.033h.269l.01-.011c1.283-.126 2.266-1.202 2.271-2.524v-7.896l-.005-.01c-.033-6.171-5.061-11.116-11.172-11.125z" />
		<path d="m281.88 134.278-14.519-.014c-5.928.003-10.797 4.858-10.803 10.797l-.01 23.241c.004 1.336 1.083 2.441 2.447 2.444l.007.004c1.353-.004 2.448-1.102 2.448-2.446l.011-23.243c.004-3.265 2.634-5.842 5.803-5.886h.006l14.604.014c3.312.002 5.949 2.596 5.949 5.886.005 1.36 1.093 2.449 2.381 2.457 1.381-.002 2.474-1.102 2.474-2.453v-.068c-.026-5.9-4.823-10.73-10.798-10.733z" />
		<path d="m334.272 165.73-26.884.049c-3.326 0-6.078-2.693-6.095-6.096v-14.264c.012-3.385 2.724-6.087 6.044-6.092h20.843c3.3.005 6.043 2.661 6.049 5.987v.139zm-6.08-31.466c-.018 0-.033.004-.043.004h-20.819c-6.107.013-11.052 5.017-11.052 11.167v.033l.015 14.22c.013 6.145 4.99 11.047 11.09 11.044h.011l26.884-.045.01 7.908v.145c-.004 3.258-2.752 5.971-6.032 5.976h-26.459c-1.412.005-2.498 1.157-2.498 2.556 0 1.358 1.136 2.395 2.498 2.39v.005h26.472c6.075-.016 11.024-4.972 11.03-11.069v-33.145c-.012-6.151-5.021-11.183-11.107-11.189z" />
		<path d="m350.455 124.862c-1.419 0-2.542 1.113-2.542 2.53v2.364c0 1.349 1.094 2.523 2.533 2.523 1.359-.011 2.504-1.147 2.521-2.523l.01-2.344c-.014-1.441-1.184-2.544-2.522-2.55z" />
		<path d="m350.44 134.264c-1.403 0-2.534 1.08-2.534 2.445l-.029 31.42v.039c-.004.056 0 .078 0 .086.017 1.386 1.122 2.492 2.521 2.496 1.351 0 2.52-1.1 2.524-2.537l.038-31.504v-.146l-.013-.01c-.091-1.308-1.224-2.289-2.507-2.289z" />
		<path d="m365.997 145.506c.006-3.384 2.79-6.162 6.194-6.159l21.045.021c3.419.007 6.153 2.778 6.157 6.181-.014 2.526-.014 4.488-.02 5.365-4.833-.015-28.684-.043-33.376-.046 0-.534 0-1.451.006-2.537-.006-.872 0-1.845-.006-2.825zm38.408-.033c-.032-6.166-5.052-11.109-11.169-11.118l-21.003-.019h-.058c-6.193 0-11.176 4.99-11.183 11.17l-.025 13.991v.056c.013 6.189 4.983 11.177 11.189 11.197h28.387c1.359 0 2.554-1.068 2.563-2.515-.009-1.407-1.198-2.477-2.551-2.479l-28.399-.037c-3.396-.01-6.166-2.776-6.163-6.179v-3.655c1.829.003 9.489.013 35.872.035h.269l.004-.01c1.283-.126 2.267-1.206 2.272-2.525v-7.902z" />
		<path d="m58.297 223.641c-.019-6.188-4.999-11.293-11.271-11.304h-8.741c-3.57.006-6.673 1.735-8.717 4.291-2.054-2.618-5.205-4.283-8.829-4.291h-17.413c-1.429.087-2.561 1.104-2.575 2.48l-.003 31.355c-.006 1.43 1.135 2.555 2.552 2.559 1.371 0 2.564-1.105 2.566-2.559.004-12.061.009-25.994.011-28.803 1.711.004-1.882.006 14.862.014 3.47.007 6.231 2.78 6.231 6.175v.013l-.006 22.631c.006 1.409 1.098 2.544 2.491 2.545h.271l.011-.017c1.282-.139 2.262-1.202 2.262-2.522v-22.542c0-3.395 2.817-6.168 6.286-6.174 1.53-.002 5.224.003 8.741.005 3.47.005 6.232 2.777 6.232 6.172v.013l-.005 22.503c.005 1.411 1.096 2.545 2.487 2.546h.274l.01-.018c1.28-.137 2.264-1.201 2.264-2.518v-.01l.013-22.522v-.021z" />
		<path d="m109.078 223.316c-.035-6.078-4.925-10.971-11.012-10.979h-29.202c-1.409.001-2.534 1.093-2.538 2.467v.007c.004 1.355 1.104 2.469 2.528 2.471h.01l29.198.018c3.315.01 6.06 2.699 6.065 6.074l.004.007c-.004 1.369-.004 2.584-.004 3.236-1.538-.003-7.342-.003-27.055-.011-6.119 0-11.095 4.893-11.097 11.012 0 6.053 4.903 11.021 11.022 11.021l21.232.011.006-.004c5.996-.067 10.826-4.926 10.842-10.996l.003-14.324zm-38.09 14.425v-.118c0-3.323 2.694-6.054 6.084-6.06 8.193.004 13.986.006 18.07.006 5.718 0 8.081-.002 8.985-.004 0 1.053-.005 3.592-.005 6.082-.002 3.312-2.688 6.003-6.006 6 0 .003-.003.003-.003.003l-21.116-.013c-3.282-.007-5.941-2.626-6.009-5.896z" />
		<path d="m119.109 205.359.007 2.301c-.007.035-.001.048 0 .057v.009h.004c0 .003-.004.006-.005.008.001 1.365 1.101 2.536 2.522 2.54l.013.002h.1l.013-.004c1.342-.067 2.428-1.191 2.447-2.538l-.003-2.445v-.002c-.04-1.407-1.198-2.462-2.521-2.475-.01 0-.013-.001-.023-.001h-.018c-1.414-.005-2.534 1.127-2.536 2.543z" />
		<path d="m121.663 212.287c-1.411.003-2.557 1.096-2.557 2.484l-.01 31.342c0 1.419 1.128 2.534 2.54 2.537h.145l.006-.004c1.303-.073 2.384-1.15 2.407-2.525l.016-31.343c-.012-1.402-1.189-2.48-2.547-2.491z" />
		<path d="m174.831 223.534c-.02-6.164-4.98-11.206-11.227-11.217h-26.354c-1.424.086-2.552 1.167-2.565 2.54l-.004 31.229c-.006 1.423 1.129 2.544 2.542 2.547 1.366 0 2.553-1.099 2.556-2.547.004-12.013.009-25.891.01-28.688 1.704.003 7.138.004 23.815.016 3.455.005 6.206 2.766 6.206 6.148v.012l-.006 22.54c.006 1.406 1.094 2.535 2.48 2.536h.271l.011-.019c1.276-.135 2.254-1.195 2.254-2.507v-.01l.013-22.559v-.02z" />
		<path d="m184.511 195.136v42.222c0 6.183 5.05 11.237 11.227 11.257h7.231c1.416 0 2.529-1.127 2.531-2.537-.002-1.362-1.097-2.549-2.533-2.552l-7.218-.004c-3.383-.007-6.141-2.796-6.14-6.177v-20.146h13.313c1.415-.001 2.544-1.103 2.542-2.468v-.132l-.008-.009c-.071-1.361-1.167-2.415-2.534-2.418h-13.313l-.004-17.036c.002-1.353-1.189-2.503-2.595-2.505-1.375-.002-2.495 1.121-2.499 2.505z" />
		<path d="m256.023 223.516c-.021-6.195-5.057-11.225-11.186-11.229-.016.002-.026 0-.039 0h-20.952c-6.187.015-11.163 5.025-11.163 11.216v.053l.033 13.946c.011 6.176 4.992 11.148 11.167 11.148h28.343c1.369-.006 2.534-1.146 2.542-2.578v-.015c-.008-1.403-1.205-2.429-2.55-2.431l-28.321-.001c-3.382.001-6.151-2.748-6.159-6.123v-3.637c1.11.006 4.319.014 12.336.014 5.375 0 12.91-.004 23.415-.017 1.44-.003 2.534-1.188 2.536-2.606v-.014zm-38.199 5.172c-.006-.942-.008-3.071-.008-5.231v-.076l-.006-.015c.038-3.334 2.766-6.076 6.106-6.085h20.856c3.371-.003 6.126 2.791 6.134 6.176 0 2.484.002 4.374.002 5.231z" />
		<path d="m305.761 223.563c-.021-6.157-4.974-11.174-11.216-11.185l-26.323-.02c-1.422.086-2.547 1.167-2.562 2.538l-.002 31.193c-.003 1.422 1.126 2.541 2.539 2.545 1.367 0 2.551-1.098 2.553-2.545.002-12 .008-25.861.012-28.655 1.698.003 7.128.004 23.783.015 3.455.007 6.203 2.763 6.203 6.142v.012l-.006 22.514c.006 1.404 1.092 2.532 2.474 2.533h.273l.012-.019c1.273-.135 2.249-1.194 2.249-2.505v-.009l.015-22.534v-.019z" />
		<path d="m356.175 223.294c-.034-6.104-4.945-10.996-11.061-11.003l-29.329-.023c-1.415.001-2.547 1.099-2.549 2.478v.006c.002 1.363 1.108 2.48 2.537 2.482h.012l29.329.019c3.328.009 6.084 2.71 6.09 6.1l.001.008c-.001 1.375-.001 2.595-.001 3.25-1.548-.003-7.376-.003-27.177-.012-6.144 0-11.14 4.914-11.143 11.061 0 6.08 4.924 11.069 11.068 11.069l21.326.011.005-.004c6.021-.068 10.875-4.947 10.89-11.044l.005-14.387zm-38.259 14.49v-.119c0-3.337 2.706-6.081 6.111-6.086 8.229.004 14.05.005 18.151.005 5.74 0 8.115-.001 9.026-.003 0 1.057-.006 3.606-.006 6.108-.004 3.327-2.7 6.029-6.033 6.026 0 .003-.002.003-.002.003l-21.211-.012c-3.294-.008-5.965-2.638-6.036-5.922z" />
		<path d="m406.639 223.528c-.02-6.188-5-11.229-11.272-11.239l-26.454-.021c-1.428.086-2.562 1.172-2.575 2.55l-.004 31.348c-.007 1.429 1.133 2.555 2.551 2.558 1.373 0 2.564-1.104 2.566-2.558.002-12.059.009-25.99.011-28.797 1.713.003 7.165.004 23.905.015 3.471.006 6.231 2.778 6.231 6.172v.013l-.007 22.625c.007 1.412 1.098 2.545 2.49 2.546h.272l.012-.018c1.28-.138 2.26-1.2 2.26-2.517v-.011l.016-22.645v-.02z" />
		<path d="m456.575 243.639h-28.788c-3.46-.001-6.204-2.751-6.21-6.225l-.015-13.776c0-3.443 2.84-6.262 6.229-6.265h28.833l.018-.006c1.352-.045 2.542-1.156 2.567-2.545-.021-1.481-1.287-2.502-2.634-2.507h-28.788c-6.276.008-11.333 5.083-11.333 11.338.002.023.002.044.004.058v13.721c.004 6.258 5.037 11.268 11.304 11.268h28.813c1.435-.003 2.556-1.133 2.558-2.571-.002-1.432-1.157-2.494-2.558-2.49z" />
		<path d="m509.497 223.531c-.021-6.203-5.068-11.24-11.204-11.244-.016.002-.029.002-.037.002h-20.983c-6.193.015-11.176 5.03-11.176 11.23v.052l.034 13.966c.011 6.184 4.997 11.163 11.18 11.163h28.383c1.37-.007 2.536-1.149 2.545-2.582v-.015c-.009-1.405-1.208-2.433-2.552-2.435l-28.364-.002c-3.386.002-6.158-2.75-6.166-6.129v-3.643c1.112.006 4.326.015 12.356.015 5.38 0 12.927-.005 23.443-.018 1.442-.003 2.541-1.188 2.543-2.609v-.014zm-38.344 5.27c-.004-.95-.009-3.093-.009-5.267v-.076l-.006-.017c.038-3.357 2.787-6.117 6.149-6.126h20.998c3.394-.003 6.167 2.81 6.177 6.219 0 2.501.005 4.403.005 5.267z" />
	</g>
</svg>