<svg	xmlns="http://www.w3.org/2000/svg"
			viewBox="0 0 187 65"
			width="100%" height="100%"
			preserveAspectRatio="xMidYMid meet"
			aria-label="Logo Metalcolor SA">
	<style>
		/* Couleur par défaut (thème sombre). */
		.dynamic-color {
			fill: #FFFFFF;
			transition: fill 0.5s ease; /* Transition douce de 0.5 seconde. */
		}
		/* Couleur adaptée au thème clair. */
		@media (prefers-color-scheme: light) {
			.dynamic-color {
				fill: #000000;
			}
		}
	</style>
	<g>
		<path
			d="M3.05693 64.6782H0C0 64.5173 0.160891 49.5544 2.73515 30.7302C4.18317 19.4678 6.75742 8.36632 8.68812 0.965332L11.5842 1.76979C9.65346 9.17078 7.2401 20.1114 5.63119 31.2129C3.21782 49.8762 3.05693 64.5173 3.05693 64.6782Z"
			fill="#E62644"/>
		<path
			d="M5.95297 64.8391C5.95297 64.3564 5.63119 52.4505 10.297 30.7302C12.8713 18.3416 16.0891 7.72276 18.5025 0.965332L21.3985 1.93068C19.146 8.6881 15.7673 19.146 13.1931 31.3737C8.68812 52.6114 9.0099 64.5173 9.0099 64.6782L5.95297 64.8391Z"
			fill="#EF7D00"/>
		<path
			d="M14.9629 64.8391H11.9059C11.9059 64.1955 12.2277 49.5544 18.0198 30.7302C21.8812 17.698 26.547 7.40098 29.604 0.965332L32.1782 2.09157C29.1213 8.36632 24.6163 18.6634 20.755 31.5346C15.2847 49.8762 14.9629 64.6782 14.9629 64.8391Z"
			fill="#FBB907"/>
		<path
			d="M17.698 64.8391C17.698 64.3564 17.5372 51.646 25.7426 30.5693C31.2129 16.5718 37.4876 6.43564 41.9926 0.482666L44.406 2.25247C40.0619 8.04455 33.7872 17.8589 28.4777 31.5346C20.5941 52.1287 20.755 64.5173 20.755 64.6782L17.698 64.8391Z"
			fill="#008E5B"/>
		<path
			d="M26.7079 64.6782H23.651C23.651 64.0347 23.8119 48.75 33.7871 30.2475C41.1881 16.4109 51.0025 6.27475 58.0817 0.160889L60.0124 2.41336C53.255 8.36633 43.6015 18.1807 36.5223 31.5347C26.8688 49.5545 26.7079 64.5173 26.7079 64.6782Z"
			fill="#0075BF"/>
		<path
			d="M32.6609 64.8391L29.6039 64.5173C29.6039 63.552 31.6955 40.2228 47.1411 23.8119C56.4728 13.9975 68.5396 5.95297 83.0198 0L84.146 2.89604C69.9876 8.68812 58.4034 16.4109 49.3935 26.0644C34.5916 41.6708 32.6609 64.6782 32.6609 64.8391Z"
			fill="#3C2F88"/>
	</g>
	<g class="dynamic-color" fill-rule="evenodd">
		<path d="M45.0495 43.2796L50.0371 57.1163L56.7945 44.4059L58.8861 56.7945H61.2995L57.599 37.6484L50.5198 52.1286L45.0495 37.8093C44.4059 38.9356 42.4752 42.6361 40.0619 49.8762C37.9703 56.3118 37.0049 64.5172 37.0049 64.5172L39.2574 64.839C39.2574 64.839 39.7401 59.5296 41.5099 52.9331C42.6361 49.5544 44.5668 44.4059 45.0495 43.2796Z"/>
		<path d="M63.2302 56.7945H73.0446V54.7029H65.4827V47.6237H72.8837V45.5321H65.4827V40.3836H73.0446V38.292H63.2302V56.7945Z"/>
		<path d="M80.9282 40.3836H85.2723V38.292H74.1708V40.3836H78.5148V56.7945H80.9282V40.3836Z"/>
		<path d="M96.052 52.1286L98.1435 56.7945H100.557L91.8688 37.6484L83.1807 56.7945H85.594L87.6856 52.1286H96.052ZM95.0866 50.0371H88.651L91.8688 42.6361L95.0866 50.0371Z"/>
		<path d="M104.418 38.292H102.166V56.7945H110.049V54.7029H104.418V38.292Z" />
		<path d="M123.564 39.2573C122.116 38.4529 120.507 37.9702 118.899 37.9702C113.428 37.9702 109.084 42.1534 109.084 47.6237C109.084 52.9331 113.428 57.1163 118.577 57.1163C120.186 57.1163 121.955 56.6336 123.403 55.8291V53.094C122.116 54.3811 120.347 55.0247 118.577 55.0247C114.554 55.0247 111.337 51.646 111.337 47.6237C111.337 43.6014 114.394 40.0618 118.577 40.0618C120.347 40.0618 122.116 40.7054 123.403 41.8316V39.2573H123.564Z"/>
		<path d="M134.666 37.9702C129.356 37.9702 125.012 42.3143 125.012 47.6237C125.012 53.094 129.356 57.2771 134.666 57.2771C139.975 57.2771 144.319 53.094 144.319 47.6237C144.158 42.3143 139.814 37.9702 134.666 37.9702ZM134.666 55.0247C130.644 55.0247 127.426 51.8068 127.426 47.6237C127.426 43.6014 130.483 40.2227 134.666 40.2227C139.01 40.2227 141.906 43.6014 141.906 47.6237C141.906 51.8068 138.527 55.0247 134.666 55.0247Z"/>
		<path d="M148.663 38.292H146.411V56.7945H154.295V54.7029H148.663V38.292Z" />
		<path d="M163.144 37.9702C157.834 37.9702 153.49 42.3143 153.49 47.6237C153.49 53.094 157.834 57.2771 163.144 57.2771C168.453 57.2771 172.797 53.094 172.797 47.6237C172.797 42.3143 168.453 37.9702 163.144 37.9702ZM163.144 55.0247C159.121 55.0247 155.903 51.8068 155.903 47.6237C155.903 43.6014 158.96 40.2227 163.144 40.2227C167.488 40.2227 170.384 43.6014 170.384 47.6237C170.545 51.8068 167.166 55.0247 163.144 55.0247Z"/>
		<path d="M180.681 48.7499C183.255 48.4281 185.025 46.1757 185.025 43.6014C185.025 41.8316 184.22 40.0618 182.611 39.2573C181.163 38.4529 179.394 38.4529 177.785 38.4529H175.049V56.7945H177.302V49.0717H178.267L183.738 56.7945H186.473L180.681 48.7499ZM177.302 40.3836H177.946C180.198 40.3836 182.933 40.8662 182.933 43.6014C182.933 46.4974 180.359 46.9801 178.106 46.9801H177.302V40.3836Z"/>
		<path d="M46.6584 60.1733H46.0148V64.8392H46.6584V60.1733Z" />
		<path d="M48.4282 59.8516L51.8069 63.5521V60.1733H52.4505V64.8392L49.0718 61.2996V64.6783H48.4282V59.8516Z"/>
		<path d="M54.3812 60.1733H55.3465C56.7945 60.1733 57.9208 60.9778 57.9208 62.4258C57.9208 64.0347 56.7945 64.6783 55.3465 64.6783H54.3812V60.1733ZM54.8638 64.1956H55.0247C56.151 64.1956 57.2772 63.7129 57.2772 62.4258C57.2772 61.1387 56.3119 60.656 55.0247 60.656H54.8638V64.1956Z"/>
		<path d="M60.1733 60.1733H59.5297V64.8392H60.1733V60.1733Z" />
		<path d="M63.3911 63.5521L64.8391 60.1733H65.4827L63.3911 65.0001L61.4604 60.1733H62.1039L63.3911 63.5521Z"/>
		<path d="M67.4133 60.1733H66.7698V64.8392H67.4133V60.1733Z" />
		<path d="M69.1832 60.1733H70.1485C71.5965 60.1733 72.7228 60.9778 72.7228 62.4258C72.7228 64.0347 71.5965 64.6783 70.1485 64.6783H69.1832V60.1733ZM69.8267 64.1956H69.9876C71.1139 64.1956 72.2401 63.7129 72.2401 62.4258C72.2401 61.1387 71.2748 60.656 69.9876 60.656H69.8267V64.1956Z"/>
		<path d="M74.9752 60.1733V62.9085C74.9752 63.7129 75.1361 64.3565 76.1015 64.3565C76.9059 64.3565 77.2277 63.7129 77.2277 62.9085V60.1733H77.8713V63.0694C77.8713 64.0347 77.2277 64.8392 76.2624 64.8392C75.1361 64.8392 74.6534 64.0347 74.6534 63.0694V60.1733H74.9752Z"/>
		<path d="M79.9628 63.5521L79.4802 64.6783H78.8366L81.0891 59.8516L83.3416 64.6783H82.698L82.0544 63.5521H79.9628ZM81.0891 61.1387L80.2846 63.0694H81.8935L81.0891 61.1387Z"/>
		<path d="M85.2723 64.1956H86.7203V64.6783H84.6287V60.1733H85.2723V64.1956Z" />
		<path d="M94.2822 60.9778C93.9604 60.656 93.4777 60.4951 92.995 60.4951C92.0297 60.4951 91.2252 61.2996 91.2252 62.4258C91.2252 63.3912 92.0297 64.3565 92.995 64.3565C93.4777 64.3565 93.7995 64.1956 94.2822 63.8738V64.5174C93.9604 64.6783 93.4777 64.8392 92.995 64.8392C91.7079 64.8392 90.5817 63.8738 90.5817 62.4258C90.5817 61.1387 91.7079 60.0125 92.995 60.0125C93.3168 60.0125 93.7995 60.1733 94.1213 60.3342V60.9778H94.2822Z"/>
		<path d="M100.235 62.4258C100.235 63.7129 99.1089 64.8392 97.8218 64.8392C96.5346 64.8392 95.4084 63.8738 95.4084 62.4258C95.4084 61.1387 96.5346 60.0125 97.8218 60.0125C99.1089 60.0125 100.235 61.1387 100.235 62.4258ZM99.7524 62.4258C99.7524 61.4605 98.948 60.4951 97.9826 60.4951C96.8564 60.4951 96.2128 61.2996 96.2128 62.4258C96.2128 63.5521 97.0173 64.3565 97.9826 64.3565C98.7871 64.1956 99.7524 63.3912 99.7524 62.4258Z"/>
		<path d="M102.488 60.1733H101.844V64.8392H102.488V60.1733Z" />
		<path d="M104.901 64.1956H106.349V64.6783H104.418V60.1733H104.901V64.1956Z" />
		<path d="M113.911 60.9778C113.589 60.656 113.106 60.4951 112.624 60.4951C111.658 60.4951 110.854 61.2996 110.854 62.4258C110.854 63.3912 111.658 64.3565 112.624 64.3565C113.106 64.3565 113.428 64.1956 113.911 63.8738V64.5174C113.589 64.6783 113.106 64.8392 112.785 64.8392C111.498 64.8392 110.371 63.8738 110.371 62.4258C110.371 61.1387 111.498 60.0125 112.785 60.0125C113.106 60.0125 113.589 60.1733 113.911 60.3342V60.9778Z"/>
		<path d="M120.025 62.4258C120.025 63.7129 118.898 64.8392 117.611 64.8392C116.324 64.8392 115.198 63.8738 115.198 62.4258C115.198 61.1387 116.324 60.0125 117.611 60.0125C118.898 60.0125 120.025 61.1387 120.025 62.4258ZM119.381 62.4258C119.381 61.4605 118.577 60.4951 117.611 60.4951C116.646 60.4951 115.842 61.2996 115.842 62.4258C115.842 63.5521 116.646 64.3565 117.611 64.3565C118.577 64.1956 119.381 63.3912 119.381 62.4258Z"/>
		<path d="M121.955 63.5521L121.473 64.6783H120.829L123.082 59.8516L125.334 64.6783H124.691L124.208 63.5521H121.955ZM123.082 61.1387L122.277 63.0694H123.886L123.082 61.1387Z"/>
		<path d="M127.587 64.6783H127.104V60.656H125.978V60.1733H128.713V60.656H127.587V64.6783Z"/>
		<path d="M130.804 60.1733H130.161V64.8392H130.804V60.1733Z" />
		<path d="M132.574 59.8516L136.114 63.5521V60.1733H136.596V64.8392L133.218 61.2996V64.6783H132.574V59.8516Z"/>
		<path d="M142.71 62.5867C142.71 63.8738 141.745 64.8392 140.458 64.8392C139.171 64.8392 138.205 63.7129 138.205 62.4258C138.205 61.1387 139.332 60.0125 140.619 60.0125C141.262 60.0125 142.067 60.3342 142.549 60.9778L142.067 61.2996C141.745 60.8169 141.262 60.4951 140.619 60.4951C139.653 60.4951 138.849 61.2996 138.849 62.4258C138.849 63.3912 139.653 64.3565 140.619 64.3565C141.262 64.3565 142.067 63.7129 142.067 63.0694H140.941V62.5867H142.71Z"/>
		<path d="M151.881 60.1733H150.755V64.8392H151.881V60.1733Z" />
		<path d="M153.49 60.1733H154.616L156.869 62.9085V60.1733H157.995V64.6783H156.869L154.616 61.9431V64.6783H153.49V60.1733Z"/>
		<path d="M162.661 61.6214C162.5 61.2996 162.017 61.1387 161.535 61.1387C160.73 61.1387 160.248 61.6214 160.248 62.4258C160.248 63.0694 160.73 63.7129 161.535 63.7129C161.856 63.7129 162.339 63.5521 162.5 63.2303V64.6783C162.178 64.8392 161.856 64.8392 161.374 64.8392C160.73 64.8392 160.087 64.5174 159.604 64.1956C159.121 63.7129 158.799 63.0694 158.799 62.4258C158.799 61.7823 158.96 61.1387 159.443 60.8169C159.926 60.3342 160.569 60.0125 161.213 60.0125C161.535 60.0125 162.017 60.1733 162.339 60.1733V61.6214H162.661Z"/>
		<path d="M165.235 61.1387V61.9431H166.522V62.9085H165.235V63.7129H166.683V64.6783H164.109V60.1733H166.683V61.1387H165.235Z"/>
		<path d="M171.188 61.1387V60.1733H172.958V64.6783H171.832V61.1387H171.188Z" />
		<path d="M175.371 64.6783L176.658 63.0694C176.497 63.2303 176.176 63.2303 176.015 63.2303C175.049 63.2303 174.567 62.4258 174.567 61.6214C174.567 60.4951 175.532 59.8516 176.497 59.8516C176.98 59.8516 177.463 60.0125 177.785 60.1733C178.106 60.4951 178.428 60.9778 178.428 61.4605C178.428 62.104 178.106 62.7476 177.624 63.2303L176.658 64.5174H175.371V64.6783ZM175.854 61.6214C175.854 62.104 176.176 62.4258 176.658 62.4258C177.141 62.4258 177.463 62.104 177.463 61.6214C177.463 61.1387 177.141 60.8169 176.658 60.8169C176.176 60.8169 175.854 61.1387 175.854 61.6214Z"/>
		<path d="M182.772 61.2996C182.772 61.7823 182.45 62.2649 182.129 62.2649C182.611 62.4258 183.094 62.9085 183.094 63.5521C183.094 64.5174 182.129 65.0001 181.324 65.0001C180.52 65.0001 179.554 64.5174 179.554 63.5521C179.554 62.9085 179.876 62.5867 180.52 62.2649C180.037 62.104 179.715 61.7823 179.715 61.2996C179.715 60.4951 180.52 60.0125 181.324 60.0125C181.968 60.0125 182.772 60.3342 182.772 61.2996ZM180.681 63.3912C180.681 63.7129 180.842 63.8738 181.163 63.8738C181.485 63.8738 181.646 63.5521 181.646 63.3912C181.646 63.0694 181.324 62.7476 181.163 62.7476C180.842 62.7476 180.681 63.0694 180.681 63.3912ZM180.681 61.2996C180.681 61.6214 180.842 61.7823 181.163 61.7823C181.485 61.7823 181.646 61.6214 181.646 61.2996C181.646 60.9778 181.485 60.8169 181.163 60.8169C181.002 60.8169 180.681 60.9778 180.681 61.2996Z"/>
		<path d="M184.381 61.1387V60.1733H186.151V64.6783H185.025V61.1387H184.381Z" />
	</g>
</svg>